<?xml version="1.0" encoding="utf-8"?>
<!-- Generator: Adobe Illustrator 23.0.1, SVG Export Plug-In . SVG Version: 6.00 Build 0)  -->
<svg version="1.1" id="Layer_1" xmlns="http://www.w3.org/2000/svg" xmlns:xlink="http://www.w3.org/1999/xlink" x="0px" y="0px"
	 viewBox="0 0 3886 3814" style="enable-background:new 0 0 3886 3814;" xml:space="preserve">
<style type="text/css">
	.st0{fill:#FF6D00;}
	.st1{fill:#080604;}
	.st2{fill:#020100;}
	.st3{fill:#030100;}
	.st4{fill:#070402;}
	.st5{fill:#080502;}
	.st6{fill:#0F0D0D;}
	.st7{fill:#070300;}
	.st8{fill:#100D0D;}
	.st9{fill:#FEFEFE;}
	.st10{fill:#FDFDFD;}
	.st11{fill:#FEFDFD;}
	.st12{fill:#FB6C01;}
	.st13{fill:#F36801;}
	.st14{fill:#0E0E0E;}
	.st15{fill:#222222;}
	.st16{fill:#333332;}
	.st17{fill:#141412;}
	.st18{fill:#292828;}
	.st19{fill:#565656;}
	.st20{fill:#070503;}
</style>
<g>
	<g>
		<path class="st0" d="M2,3816C2,2544.67,2,1273.33,2,2c1295.33,0,2590.67,0,3886,0c0,1271.33,0,2542.67,0,3814
			C2592.67,3816,1297.33,3816,2,3816z M1352.03,3295.39c1.63,2.01,2.61,2.89,3.18,3.98c10.76,20.41,28.43,31.14,50.34,35.81
			c20.76,4.42,41.73,4.37,62.65,1.63c5.49-0.72,11-2.77,16.03-5.18c57.25-27.37,97.82-70.46,121.72-129.32
			c3.65-8.99,4.95-17.83,3.03-27.3c-2.45-12.07-4.23-24.3-7.09-36.27c-11.56-48.38-29.5-94.06-58.95-134.59
			c-24.23-33.35-53.23-62.29-84.53-88.92c-5.87-4.99-7.54-9.38-5.72-17.04c10.81-45.35,21.37-90.77,31.36-136.32
			c32.05-146.12,58.75-293.26,83.95-440.69c0.55-3.19,1.25-7.1-0.05-9.71c-2.35-4.71-0.68-8.21,1.13-12.18
			c21.69-47.46,37.91-96.71,48.08-147.9c10.39-52.3,14.11-105.01,7.97-158.11c-8.34-72.2-20.98-143.71-36.37-214.71
			c-9.38-43.29-19.61-86.4-29.7-129.53c-1.33-5.68-0.92-9.83,3.27-14.4c30.89-33.75,54.49-72.22,72.92-113.99
			c19.68-44.62,31.56-91.18,34.52-139.88c4.57-75.3-11.1-146.5-45.76-213.24c-8.61-16.57-12.73-32.31-10.98-51.09
			c3.09-33.13,3.19-66.56,9.52-99.35c3.97-20.58,8.82-41,13.51-61.44c6.71-29.21,13.61-58.37,20.51-87.54
			c1.97-8.34,2.1-8.17,10.64-8.49c8.64-0.32,17.39-0.23,25.88-1.59c30.29-4.85,56.77-17.43,80.02-37.92
			c24.47-21.57,43.5-46.56,55.84-76.75c12.54-30.69,14.29-62.86,12.45-95.29c-0.55-9.74-4.04-19.52-7.42-28.83
			c-1.96-5.4-2.35-9.91-0.56-15.28c5.89-17.6,8.35-35.87,6.01-54.21c-8.11-63.38-42.08-106.85-102.61-128
			c-34.8-12.16-70.75-11.65-106.45-3.7c-24.2,5.39-47.3,13.84-66.85,29.94c-2.01,1.65-4.34,2.9-7.01,4.64
			c-1.76-2.44-3.46-4.43-4.75-6.65c-30.73-52.78-76.88-85.57-134.35-103.67c-23.78-7.49-48.21-9.51-73.04-8.78
			c-17.29,0.51-34.51-0.23-51.56,4.47c-22.19,6.11-44.24,12.31-64.68,23.2c-29.23,15.57-56.28,34.37-81.41,55.86
			c-4.84,4.14-9.18,4.77-15.29,4.31c-10.86-0.81-21.99-0.9-32.75,0.58c-13.12,1.81-25.93,5.81-38.96,8.41
			c-68.31,13.65-119.46,75.97-119.46,145.74c0,7,0.26,14.01-0.05,20.99c-0.64,14.24,2.49,27.81,6.87,41.17
			c2.18,6.64,4.29,13.33,7.03,19.75c12.28,28.76,29.5,53.54,56.52,70.62c26.96,17.05,56.49,26.5,87.82,30.99
			c6.18,0.89,12.38,1.69,19.38,2.65c2.01,9.28,6.44,18.61,5.43,27.29c-2.7,23.1-5.87,46.46-12.27,68.74
			c-12.49,43.49-27.29,86.31-41.24,129.38c-0.8,2.46-2.04,5.06-3.82,6.86c-14.72,14.96-28.92,30.53-44.57,44.46
			c-94.44,84.05-141.69,189.75-144.89,315.43c-1.04,40.88,5.62,81.06,17.85,120.09c36.31,115.9,107.38,202.37,217.5,255.54
			c1.42,0.69,2.67,1.75,4.14,2.73c-1.01,2.17-1.85,3.97-2.7,5.77c-15.61,33.15-31.94,65.98-46.67,99.51
			c-31.53,71.77-58.82,145.08-75.84,221.84c-7.37,33.26-12.35,66.87-12.06,101.02c0.25,28.92,4.59,57.1,17.73,83.33
			c17.57,35.07,45.57,59.42,79.74,77.3c23.45,12.28,48.35,20.67,74.08,26.68c3.69,0.86,7.34,1.91,12.64,3.3
			c-12.09,10.58-22.65,19.68-33.07,28.95c-52.48,46.67-100.54,97.36-139.8,155.85c-22.38,33.35-40.8,68.66-51.75,107.59
			c-11.5,40.87-9.95,80.99,5.9,120.44c9.11,22.67,21.06,43.8,35.27,63.67c30.88,43.18,68.58,79.77,109.88,112.75
			c12.83,10.25,24.71,22.18,41.62,26.91c-1.06,3.38-1.86,6.23-2.83,9.01c-24.02,68.86-48,137.74-72.2,206.53
			c-2.95,8.4-7.21,16.33-10.68,24.55c-0.88,2.09-1.46,4.46-1.54,6.72c-1.51,44.34,2.49,87.9,19.19,129.53
			c6.29,15.69,15.44,29.55,28.22,40.71c25.34,22.14,55.11,35.91,88.24,39.05c56.7,5.37,103.57-15.7,141.01-58.36
			c3.19-3.63,7.53-6.22,11.04-9.6c2.32-2.24,4.58-4.79,6-7.63c1.46-2.92,1.85-6.37,2.73-9.58
			C1343.99,3324.58,1347.87,3310.51,1352.03,3295.39z M1909.06,2338.12c0.6,2.52,0.96,3.78,1.21,5.07
			c3.89,20.6,7.78,41.2,11.64,61.81c1.76,9.39,5.01,12.23,14.73,12.71c1.33,0.07,2.66,0.02,4,0.02c34.98,0,69.95,0,104.93,0
			c2,0,4.02,0.15,5.99-0.08c7.9-0.92,11.59-5.62,10.76-13.63c-0.21-1.98-0.51-3.97-0.92-5.92c-11.6-55.37-23.24-110.72-34.82-166.09
			c-12.26-58.63-24.49-117.26-36.69-175.9c-2.62-12.59-4.84-14.44-18.23-14.26c-59.29,0.78-118.57,1.58-177.86,2.36
			c-12.09,0.16-13.93,1.97-15.67,14.31c-3.67,26.03-7.52,52.04-11.34,78.06c-5.56,37.87-11.15,75.74-16.73,113.6
			c-5.81,39.51-11.65,79.03-17.41,118.55c-1.68,11.52-3.54,23.04-4.58,34.63c-0.72,8.09,2.18,10.77,10.24,11.47
			c2.32,0.2,4.66,0.15,6.99,0.21c35.3,0.84,70.59,1.66,105.89,2.51c13.36,0.32,16.07-2,17.23-15.81
			c1.38-16.59,2.46-33.21,3.75-49.81c0.3-3.84,0.95-7.65,1.46-11.62C1885.86,2339.54,1897.09,2338.86,1909.06,2338.12z
			 M2244.93,2316.2c2.41-5.76,4.26-10.28,6.19-14.76c38.55-89.63,77.11-179.26,115.64-268.9c1.44-3.35,3-6.75,3.74-10.29
			c1.34-6.44-1.82-10.47-8.35-10.56c-5.65-0.08-11.32,0.46-16.96,0.92c-45.16,3.7-90.3,7.48-135.46,11.16
			c-48.48,3.95-96.96,7.8-145.44,11.76c-11.02,0.9-12.66,2.59-12.17,13.55c1.13,25.63,2.45,51.25,3.84,76.87
			c0.56,10.29,4.48,13.53,14.63,12.72c46.49-3.72,92.98-7.44,139.47-11.16c3.22-0.26,6.44-0.43,11.43-0.77
			c-2.13,4.85-3.47,8.14-4.99,11.34c-33.23,69.75-66.48,139.5-99.72,209.25c-10.03,21.04-20.12,42.06-30.05,63.15
			c-5.05,10.73-1.86,15.52,10.2,15.49c6.66-0.02,13.33-0.29,19.99-0.54c51.61-1.94,103.22-3.87,154.83-5.88
			c42.62-1.66,85.23-3.37,127.84-5.16c12.76-0.54,15.1-3.06,14.26-15.93c-1.72-26.26-3.67-52.51-5.63-78.76
			c-0.71-9.48-4.85-13.31-14.07-12.74c-32.92,2.01-65.83,4.22-98.75,6.29C2279.14,2314.28,2262.88,2315.16,2244.93,2316.2z
			 M2542.24,2112.77c2.26-0.35,3.84-0.66,5.44-0.82c33.14-3.43,66.28-6.84,99.42-10.28c13.37-1.39,15.85-4.15,15.03-17.81
			c-1.49-24.95-3.07-49.89-4.87-74.82c-1.2-16.61-3.66-18.24-19.84-16.29c-43.66,5.25-87.34,10.3-131.01,15.44
			c-25.15,2.96-50.3,5.84-75.42,8.99c-10.47,1.31-11.66,2.9-11.14,13.61c0.55,11.31,1.39,22.62,2.14,33.92
			c2.29,34.58,4.58,69.16,6.92,103.74c3.01,44.55,6.07,89.1,9.13,133.64c1.87,27.26,3.74,54.52,5.74,81.77
			c0.62,8.51,4.24,11.82,12.68,12.01c3.32,0.07,6.66-0.28,9.98-0.51c25.6-1.73,51.2-3.52,76.8-5.22
			c39.23-2.61,78.47-5.13,117.7-7.79c10.55-0.72,13.66-3.99,13.48-14.33c-0.48-27.99-1.57-55.98-1.59-83.97
			c-0.01-11.84-6.09-14.21-14.84-13.1c-28.42,3.6-56.86,7.07-85.31,10.52c-4.78,0.58-9.61,0.79-15.05,1.22
			c-0.57-13.49-1.07-25.63-1.6-38.26c4.12-0.25,7.05-0.49,9.99-0.59c29.98-0.93,59.96-1.82,89.95-2.74
			c2.66-0.08,5.35-0.07,7.98-0.47c6.12-0.93,8.14-3.06,8.23-9.2c0.07-4.32-0.36-8.66-0.78-12.97c-1.82-18.57-3.79-37.12-5.57-55.69
			c-1.22-12.78-4.41-15.92-17.12-14.81c-25.23,2.2-50.42,4.78-75.63,7.17c-10.11,0.96-20.24,1.84-30.83,2.8
			C2542.24,2142.44,2542.24,2128.18,2542.24,2112.77z M2818.35,2139.03c0-15.97,0-30.45,0-45.42c18.14-1.92,35.68-3.76,53.22-5.62
			c18.22-1.93,36.46-3.72,54.65-5.86c9.4-1.11,12.46-4.22,11.95-12.51c-1.73-28.27-3.6-56.53-5.81-84.76
			c-0.8-10.19-4.21-12.48-14.45-11.31c-37.4,4.28-74.79,8.57-112.18,12.93c-33.09,3.85-66.16,7.78-99.24,11.69
			c-8.27,0.98-9.19,1.66-9.05,9.82c0.32,18.65,0.44,37.33,1.58,55.94c2.67,43.56,5.93,87.09,8.87,130.64
			c2.99,44.21,5.85,88.43,8.82,132.65c0.85,12.63,1.75,25.26,2.87,37.87c0.74,8.38,4.64,11.82,12.82,11.89
			c1.66,0.01,3.32-0.32,4.98-0.43c35.25-2.24,70.49-4.45,105.74-6.71c31.25-2.01,62.51-4.03,93.76-6.14
			c9.59-0.65,13.5-4.46,13.35-13.69c-0.48-29.32-1.14-58.64-1.93-87.96c-0.2-7.55-2.98-9.9-10.62-10.08
			c-2.32-0.06-4.67,0.11-6.98,0.4c-24.13,2.97-48.25,6.02-72.39,8.96c-8.07,0.98-16.18,1.72-25.33,2.69c0-13.62,0-25.84,0-38.76
			c5.58-0.28,11.2-0.67,16.83-0.84c28.65-0.84,57.3-1.61,85.94-2.43c10.37-0.3,13-2.56,12.17-12.42
			c-1.96-23.23-4.28-46.44-6.78-69.62c-0.91-8.45-5.9-12.12-14.52-11.34c-15.26,1.38-30.49,3.05-45.75,4.52
			C2860.35,2135.09,2839.8,2137,2818.35,2139.03z M2067.99,1492.54c0.62,2.83,1.39,5.05,1.57,7.32c1.51,19.26,2.86,38.53,4.37,57.78
			c1.87,23.89,3.97,47.77,5.67,71.68c0.5,6.96,3.81,11.19,10.2,13.15c3.14,0.96,6.43,1.73,9.69,1.96
			c17.28,1.2,34.57,2.24,51.86,3.24c33.25,1.93,66.51,3.83,99.76,5.67c17.63,0.98,35.25,2.03,52.89,2.62
			c11.02,0.37,15.92-5.4,14.95-16.03c-3.1-34.15-6.07-68.31-9.13-102.47c-3.18-35.48-6.46-70.95-9.59-106.44
			c-3.72-42.12-7.26-84.26-10.99-126.39c-4.4-49.75-8.89-99.49-13.37-149.23c-5.11-56.7-10.31-113.4-15.35-170.11
			c-4.97-56.05-9.83-112.11-14.63-168.18c-1.1-12.84-4.82-17.07-17.52-18.61c-1.98-0.24-3.99-0.15-5.99-0.23
			c-19.64-0.72-39.27-1.59-58.92-2.14c-76.28-2.13-152.56-3.47-228.79,1.72c-24.91,1.7-49.83,3.54-74.1,10
			c-9.01,2.4-17.96,5.09-25.41,11.14c-5.71,4.64-8.84,10.54-9.54,17.91c-3.98,41.75-7.77,83.51-12.19,125.21
			c-4.14,39.04-9.01,78.01-13.51,117.02c-3.51,30.43-6.87,60.88-10.46,91.3c-4.48,38.01-9.16,76.01-13.7,114.01
			c-2.84,23.81-5.54,47.63-8.41,71.43c-3.71,30.73-7.61,61.45-11.3,92.18c-4.44,37.02-8.78,74.04-13.08,111.08
			c-3.65,31.42-7.35,62.84-10.67,94.3c-1.39,13.18,5,20.78,18.16,22.38c6.6,0.8,13.34,1.57,19.93,1.12
			c33.21-2.3,66.45-4.44,99.56-7.74c29.8-2.97,59.44-7.51,89.19-11.11c21.3-2.58,24.31-5.65,24.32-26.8
			c0.02-42.66,0-85.31,0.03-127.97c0-3.51,0.34-7.01,0.53-10.76C2012.4,1492.54,2039.66,1492.54,2067.99,1492.54z M2493.19,1487.59
			c-4.01,0.49-6.29,0.83-8.58,1.05c-25.87,2.44-51.76,4.64-77.6,7.37c-12.25,1.29-15.5,5.5-14.84,17.81
			c1.44,26.95,3.04,53.88,4.65,80.82c0.9,14.96,2.23,29.91,2.83,44.88c0.26,6.47,2.92,11.27,8.38,13.61
			c4.36,1.87,9.56,2.76,14.32,2.57c75.91-2.98,151.8-6.27,227.7-9.34c43.28-1.75,86.57-3.23,129.86-4.88
			c9.32-0.36,18.66-0.62,27.94-1.51c11.48-1.1,15.65-6.61,14.81-17.93c-0.98-13.29-1.67-26.6-2.56-39.89
			c-1.91-28.59-3.76-57.18-5.83-85.75c-0.87-11.95-7.88-17.79-19.74-17.38c-31.97,1.1-63.94,2.12-95.92,3.1
			c-2.5,0.08-5.02-0.41-7.84-0.67c-0.2-2.68-0.42-4.62-0.48-6.58c-2-69.28-3.99-138.57-5.98-207.85c-2.67-92.93-5.4-185.86-8-278.8
			c-1.71-60.96-3.23-121.92-4.84-182.89c-0.04-1.67,0.02-3.35-0.16-5c-0.91-8.03-4.84-12.06-12.83-12.56
			c-4.64-0.29-9.34-0.12-13.98,0.23c-25.58,1.92-51.15,3.99-76.72,5.97c-53.81,4.16-107.61,8.26-161.42,12.45
			c-9.28,0.72-12.81,3.88-14.71,13.26c-3.7,18.27-7.18,36.59-10.79,54.89c-6.77,34.3-13.31,68.65-20.48,102.87
			c-2.64,12.62,4.77,23.67,19.37,23.01c25.28-1.14,50.65-0.32,75.98-0.31c3.25,0,6.51,0,10.78,0
			C2475.44,1162.97,2484.29,1324.85,2493.19,1487.59z M1673.6,2632.36c11.75,66.02,23.22,130.45,34.85,195.77
			c21.58-1.36,42.33-2.67,63.56-4.02c2.68-32.78,5.27-64.44,7.86-96.09c0.39,0.06,0.77,0.12,1.16,0.19
			c6.7,31.15,13.4,62.3,20.26,94.22c22.06-1.32,42.91-2.56,63.53-3.8c3.28-17.1,12-189.55,9.95-198.55c-15.64,1-31.4,2-47.76,3.04
			c-3.7,42.84-5.53,84.69-5.54,126.64c-0.66,0.04-1.32,0.09-1.97,0.13c-5.91-41.61-11.82-83.22-17.8-125.36
			c-18.42,1.17-35.56,2.26-54.01,3.43c-2.16,41.93-4.28,83.08-6.4,124.23c-0.25,0.04-0.5,0.09-0.75,0.13
			c-5.72-40.68-11.45-81.36-17.29-122.94C1706.6,2630.38,1690.78,2631.33,1673.6,2632.36z M2053.36,1802.38
			c-1.33,0-2.67-0.06-4,0.01c-96,5.13-187.31,28.98-274.61,68.84c-3.63,1.66-7.39,3.23-10.61,5.52c-5.23,3.71-6.56,10.6-3.69,16.08
			c2.87,5.48,9.19,8.13,15.3,6.29c1.58-0.48,3.06-1.31,4.57-2.02c69.88-32.86,143.17-54.13,219.66-64.5
			c45.57-6.18,90.98-6.14,136.27,2.88c37.24,7.42,74.51,14.76,111.93,21.21c46.69,8.05,93.48,8.24,140.21-0.49
			c33.83-6.32,66.71-16.13,99.05-27.57c53.67-18.97,108.59-25.88,165.27-20.4c55.92,5.41,110.72,16.14,164.42,32.56
			c2.55,0.78,5.08,1.81,7.69,2.14c6.37,0.81,11.93-2.97,13.83-9.04c1.75-5.58-0.37-11.6-5.69-14.62c-2.85-1.62-6.14-2.52-9.31-3.5
			c-54.97-16.86-111.07-27.87-168.33-33.27c-56.86-5.36-112.38-0.19-166.54,18.69c-21.05,7.34-42.5,13.61-63.91,19.86
			c-53.54,15.63-108.02,20.33-163.19,11.36c-35.17-5.71-70.13-12.74-105.13-19.45C2122.45,1806.43,2088.24,1801.24,2053.36,1802.38z
			 M2606.98,3155.1c16.6-1.18,33.29-1.7,49.8-3.66c89.23-10.61,173.68-37.12,253.84-77.51c2.66-1.34,5.41-2.74,7.63-4.67
			c4.33-3.77,5.25-10.57,2.57-15.58c-2.74-5.11-8.65-7.74-14.44-6.19c-1.9,0.51-3.69,1.49-5.46,2.39
			c-67.89,34.57-139.35,58.29-214.43,71.32c-48.36,8.39-96.63,9.69-145.19,1.43c-37.1-6.31-74.33-11.98-111.62-17.05
			c-53.86-7.32-107.21-3.7-159.28,11.96c-33.14,9.97-65.72,21.85-98.52,32.94c-30.47,10.3-61.54,16.96-93.87,17.83
			c-71.92,1.94-142.14-8.76-211.42-27.11c-2.57-0.68-5.14-1.61-7.76-1.87c-6.49-0.65-11.85,3.14-13.65,9.28
			c-1.73,5.93,0.97,12.15,6.88,14.99c2.67,1.29,5.64,2.02,8.54,2.79c61.42,16.25,123.72,26.11,187.36,28.07
			c51.44,1.58,100.8-6.92,148.78-25.1c19.3-7.31,38.86-13.99,58.46-20.47c50.55-16.7,102.29-25.08,155.54-19.09
			c31.42,3.54,62.71,8.4,93.97,13.22C2538.63,3148.27,2572.43,3154.35,2606.98,3155.1z M3076.22,2746.14
			c-4.02-66.22-7.96-131.22-11.96-197.11c-16.88,1.08-32.61,2.08-48.91,3.12c0.78,15.29,1.49,29.15,2.24,44.05
			c-3.95-2.21-7.02-4.04-10.19-5.69c-20.12-10.52-54.79-1.87-52.05,31.4c1.86,22.57,2.31,45.25,3.64,67.86
			c0.72,12.3,1.51,24.62,3.09,36.83c2.22,17.17,14.22,27.2,31.3,27.39c11.37,0.12,20.58-4.6,28.75-12.02c0.88-0.8,2.1-1.24,3.26-1.9
			c1.03,3.22,1.9,5.97,2.86,8.98C3044.02,2748.08,3059.28,2747.16,3076.22,2746.14z M2483.77,2781.96c0.14-2.87,0.33-4.19,0.25-5.5
			c-1.67-28.58-3.46-57.16-5.01-85.75c-0.68-12.62-0.94-25.27-1.22-37.92c-0.1-4.29,2.1-6.83,6.66-6.98
			c4.17-0.14,6.04,2.34,6.7,5.95c0.53,2.94,0.81,5.93,0.99,8.92c2.11,34.56,4.15,69.12,6.28,103.68c0.32,5.25,0.97,10.48,1.56,16.6
			c16.45-1.02,32.17-1.99,47.7-2.95c0.35-2.32,0.68-3.29,0.62-4.24c-2.26-39.22-4.47-78.44-6.95-117.65
			c-0.42-6.6-1.63-13.23-3.21-19.66c-2.73-11.13-10.41-17.94-21.34-20c-14.21-2.67-27.21,0-36.89,12.07
			c-0.85,1.07-2.15,1.78-3.61,2.96c-0.47-4.11-0.83-7.3-1.27-11.22c-16.67,1.08-32.7,2.11-49.5,3.2c3.3,54.4,6.51,107.4,9.78,161.33
			C2452.11,2783.82,2467.6,2782.91,2483.77,2781.96z M2816.44,2693.53c-0.42-7.38-0.8-16.69-1.52-25.98
			c-0.74-9.61-1.34-19.27-2.82-28.78c-2.56-16.48-12.18-27.73-27.44-34.12c-12.34-5.16-25.32-5.81-38.29-3.86
			c-30.5,4.59-44.1,20.4-44.76,51.2c-0.02,1-0.06,2-0.01,3c0.98,19.94,1.75,39.9,3.09,59.82c0.51,7.59,1.72,15.27,3.76,22.6
			c3.79,13.66,12.07,23.66,26.31,27.48c18.21,4.89,36.32,4.3,53.91-2.53c16.31-6.33,25.83-18.7,27.59-36.03
			C2817.29,2716.14,2816.44,2705.76,2816.44,2693.53z M2944.36,2687.17c0.22-0.02,0.44-0.03,0.66-0.05
			c-1.57-18.56-2.57-37.19-4.87-55.65c-2.21-17.79-12.96-29.37-29.63-35.62c-11.54-4.33-23.51-4.82-35.45-3.17
			c-30.86,4.27-44.86,20.41-45.46,51.61c-0.01,0.67-0.04,1.33-0.01,2c0.99,20.28,1.76,40.57,3.12,60.82
			c0.51,7.59,1.73,15.28,3.81,22.58c3.75,13.23,11.74,23.08,25.56,26.98c18.88,5.32,37.65,4.61,55.77-2.8
			c15.39-6.29,24.58-18.32,26.31-34.84C2945.26,2708.52,2944.36,2697.8,2944.36,2687.17z M2326.39,2723.76
			c-8.62,0.55-15.9,1-23.18,1.48c-7.52,0.5-15.04,1.02-23.26,1.58c0.49,6.95,1.09,12.89,1.27,18.84c0.16,5.3,0.17,10.65-0.34,15.92
			c-0.44,4.57-3.44,7.08-8.17,7.07c-4.51-0.01-6.65-2.7-7-6.88c-1.23-14.51-2.36-29.03-3.61-44.54c21.84-1.41,42.58-2.74,63.87-4.11
			c-0.99-17.07-1.22-33.02-5.57-48.58c-4.52-16.16-15.02-26.5-30.74-31.37c-16.78-5.2-33.58-4.39-49.93,2.05
			c-17.18,6.76-26.73,19.53-27.76,37.96c-0.58,10.28-0.34,20.65,0.24,30.94c0.98,17.29,1.97,34.61,3.96,51.79
			c2.41,20.81,14.73,34.47,34.37,39.45c14.18,3.6,28.39,3.14,42.5-0.63c13.32-3.56,22.92-11.6,29.37-23.77
			C2330.27,2756.13,2327.81,2740.64,2326.39,2723.76z M2003.84,2732.11c-0.78-17.04-1.1-32.93-5.41-48.45
			c-4.59-16.53-15.49-26.86-31.62-31.73c-13.38-4.04-27-3.88-40.47-0.47c-24.32,6.16-36.79,20.56-36.52,45.63
			c0.28,26.27,1.95,52.59,4.58,78.73c2.03,20.15,14.09,33.33,34.09,38.4c13.49,3.42,27.05,2.97,40.57-0.03
			c16.25-3.61,27.2-13.54,33.36-28.75c5.59-13.8,3.39-27.88,1.94-42.6c-16.06,1-30.84,1.91-46.24,2.87
			c0.26,5.56,0.47,9.83,0.66,14.11c0.26,5.98,0.92,11.99,0.62,17.94c-0.35,6.85-3.64,10.22-8.69,10.09
			c-5.83-0.15-6.68-4.52-7.39-8.95c-0.32-1.97-0.75-3.94-0.88-5.92c-0.71-10.97-1.37-21.94-1.95-32.91
			c-0.06-1.18,0.51-2.4,0.84-3.85C1962,2734.85,1982.22,2733.52,2003.84,2732.11z M2020.42,2752.43
			c-1.14,10.83,0.51,20.54,3.31,30.14c2.67,9.17,8.3,16.02,17.05,19.74c22.71,9.65,45.42,9.15,67.56-1.66
			c10.59-5.17,16.77-14.34,17.57-26.15c0.63-9.25,0.63-18.66-0.31-27.87c-1.13-11.11-6.46-20.3-16.5-25.97
			c-6.65-3.76-13.55-7.08-20.41-10.46c-6.27-3.08-12.81-5.64-18.91-9.01c-8.91-4.92-12.51-12.71-11.16-22.53
			c0.75-5.48,3.47-8.39,8.03-8.57c4.58-0.18,6.62,2.07,7.47,8.56c0.72,5.48,1.27,10.98,1.93,16.82c14.88-0.94,28.63-1.8,42.9-2.7
			c-0.4-6.64-0.77-11.92-1.04-17.2c-0.72-14.2-8.13-24.06-20.96-28.96c-21.86-8.34-43.72-7.22-64.86,2.99
			c-6.78,3.27-12.15,8.34-14.69,15.64c-5.01,14.38-3.93,28.8,0.25,43.18c3.48,11.99,12.96,18.17,23.06,23.57
			c9.97,5.34,20.23,10.14,30.24,15.42c9.26,4.88,13.84,17.42,10.31,27.24c-1.46,4.08-4.49,5.46-8.55,5.44
			c-3.97-0.03-6.25-2.1-6.93-5.83c-0.77-4.24-1.36-8.52-1.85-12.81c-0.41-3.54-0.55-7.11-0.89-11.72
			C2048.33,2750.67,2034.55,2751.54,2020.42,2752.43z M2658.14,2688.37c11.13-1.01,20.96-1.9,31.47-2.85
			c-0.79-12.54-1.53-24.32-2.27-36.16c-10.78,0-20.88,0-31.45,0c-0.49-12.29-3.07-23.97-1.27-36.04c11.54-2.36,23-0.26,34.25-3.15
			c-0.75-13.17-1.45-25.38-2.22-38.72c-29.29,1.77-57.65,3.48-86.84,5.25c4.01,66.11,7.95,131.1,11.95,197.13
			c17.26-1.05,33.65-2.05,51.06-3.11C2661.24,2742.79,2659.72,2716,2658.14,2688.37z M2137.86,2670.47
			c1.47,24.39,2.8,47.94,4.33,71.47c0.76,11.61,1.81,23.2,2.85,34.79c1.38,15.28,13.05,22.47,24.74,22.69
			c13.17,0.25,26.37-0.81,40.52-1.34c-0.49-9.34-0.91-17.41-1.31-25.26c-15.04-1.6-15.04-1.6-16.46-16.15
			c-0.13-1.32-0.19-2.65-0.27-3.98c-1.3-21.25-2.7-42.49-3.83-63.75c-0.38-7.19-0.06-14.42-0.06-22.14c3.8-0.45,7.31-0.87,11.9-1.42
			c-0.52-8.55-1.01-16.57-1.52-25.02c-4.92,0-8.47,0-12.55,0c-0.91-8.21-1.78-15.99-2.75-24.66c-16.42,1.01-32.17,1.97-47.94,2.94
			c0,8.81,0,16.66,0,24.88c-3.14,0.53-5.95,1.01-9.63,1.63c0.46,8.33,0.88,16.17,1.32,24.17
			C2131.02,2669.74,2133.94,2670.05,2137.86,2670.47z M2395.43,2786.9c-0.91-15.28-1.82-28.87-2.51-42.47
			c-0.77-15.29-1.74-30.59-1.87-45.89c-0.09-11.38,4.17-16.15,15.14-19.18c3.73-1.03,7.56-1.7,11.9-2.67
			c-1.19-18.68-2.33-36.78-3.52-55.53c-13.94,1.63-21.53,9.93-27.57,20.49c-0.57-0.35-1.13-0.69-1.7-1.04c0-4.76,0-9.52,0-15.22
			c-16.78,1.06-32.53,2.06-48.77,3.08c3.48,54.46,6.07,107.79,10.09,161.52C2363.43,2788.93,2378.94,2787.95,2395.43,2786.9z"/>
		<path class="st1" d="M1352.03,3295.39c-4.16,15.12-8.04,29.19-11.91,43.27c-0.88,3.21-1.27,6.66-2.73,9.58
			c-1.42,2.84-3.68,5.39-6,7.63c-3.51,3.38-7.85,5.97-11.04,9.6c-37.44,42.66-84.32,63.73-141.01,58.36
			c-33.13-3.14-62.9-16.91-88.24-39.05c-12.78-11.16-21.93-25.02-28.22-40.71c-16.69-41.64-20.69-85.19-19.19-129.53
			c0.08-2.26,0.66-4.63,1.54-6.72c3.47-8.22,7.73-16.15,10.68-24.55c24.2-68.8,48.17-137.67,72.2-206.53
			c0.97-2.79,1.78-5.63,2.83-9.01c-16.92-4.74-28.79-16.67-41.62-26.91c-41.3-32.99-78.99-69.58-109.88-112.75
			c-14.21-19.86-26.16-40.99-35.27-63.67c-15.85-39.45-17.41-79.57-5.9-120.44c10.96-38.93,29.37-74.24,51.75-107.59
			c39.26-58.5,87.32-109.18,139.8-155.85c10.42-9.27,20.98-18.38,33.07-28.95c-5.3-1.39-8.95-2.43-12.64-3.3
			c-25.73-6.01-50.63-14.4-74.08-26.68c-34.18-17.89-62.18-42.24-79.74-77.3c-13.14-26.24-17.48-54.41-17.73-83.33
			c-0.29-34.16,4.68-67.76,12.06-101.02c17.02-76.76,44.31-150.07,75.84-221.84c14.73-33.53,31.06-66.36,46.67-99.51
			c0.85-1.8,1.68-3.61,2.7-5.77c-1.47-0.98-2.72-2.04-4.14-2.73c-110.12-53.17-181.19-139.64-217.5-255.54
			c-12.23-39.03-18.89-79.21-17.85-120.09c3.21-125.68,50.46-231.38,144.89-315.43c15.65-13.93,29.85-29.5,44.57-44.46
			c1.78-1.8,3.02-4.41,3.82-6.86c13.94-43.07,28.74-85.89,41.24-129.38c6.4-22.28,9.57-45.64,12.27-68.74
			c1.02-8.69-3.42-18.01-5.43-27.29c-7-0.95-13.19-1.76-19.38-2.65c-31.33-4.49-60.86-13.94-87.82-30.99
			c-27.02-17.09-44.24-41.87-56.52-70.62c-2.74-6.41-4.86-13.11-7.03-19.75c-4.38-13.36-7.52-26.92-6.87-41.17
			c0.32-6.98,0.05-14,0.05-20.99c0-69.77,51.15-132.09,119.46-145.74c13.03-2.6,25.84-6.6,38.96-8.41
			c10.76-1.48,21.89-1.39,32.75-0.58c6.11,0.45,10.45-0.17,15.29-4.31c25.13-21.5,52.18-40.29,81.41-55.86
			c20.44-10.89,42.5-17.08,64.68-23.2c17.05-4.7,34.27-3.96,51.56-4.47c24.83-0.73,49.26,1.29,73.04,8.78
			c57.46,18.1,103.62,50.88,134.35,103.67c1.29,2.22,2.99,4.21,4.75,6.65c2.66-1.75,5-2.99,7.01-4.64
			c19.55-16.1,42.64-24.54,66.85-29.94c35.7-7.96,71.65-8.46,106.45,3.7c60.53,21.15,94.5,64.62,102.61,128
			c2.35,18.33-0.12,36.61-6.01,54.21c-1.8,5.37-1.4,9.88,0.56,15.28c3.38,9.31,6.86,19.09,7.42,28.83
			c1.84,32.43,0.09,64.6-12.45,95.29c-12.33,30.18-31.36,55.18-55.84,76.75c-23.25,20.49-49.74,33.07-80.02,37.92
			c-8.5,1.36-17.24,1.26-25.88,1.59c-8.55,0.32-8.67,0.15-10.64,8.49c-6.9,29.17-13.8,58.33-20.51,87.54
			c-4.7,20.44-9.54,40.86-13.51,61.44c-6.33,32.79-6.43,66.23-9.52,99.35c-1.75,18.78,2.37,34.53,10.98,51.09
			c34.66,66.74,50.34,137.94,45.76,213.24c-2.96,48.7-14.84,95.26-34.52,139.88c-18.43,41.77-42.03,80.24-72.92,113.99
			c-4.19,4.58-4.6,8.73-3.27,14.4c10.09,43.13,20.32,86.24,29.7,129.53c15.38,71,28.03,142.51,36.37,214.71
			c6.14,53.1,2.42,105.8-7.97,158.11c-10.17,51.2-26.39,100.45-48.08,147.9c-1.81,3.97-3.48,7.47-1.13,12.18
			c1.3,2.61,0.6,6.51,0.05,9.71c-25.2,147.43-51.9,294.57-83.95,440.69c-9.99,45.54-20.55,90.96-31.36,136.32
			c-1.82,7.66-0.15,12.05,5.72,17.04c31.3,26.63,60.3,55.57,84.53,88.92c29.45,40.52,47.39,86.21,58.95,134.59
			c2.86,11.97,4.64,24.2,7.09,36.27c1.92,9.47,0.62,18.31-3.03,27.3c-23.9,58.86-64.47,101.95-121.72,129.32
			c-5.04,2.41-10.55,4.46-16.03,5.18c-20.92,2.74-41.89,2.79-62.65-1.63c-21.91-4.66-39.58-15.39-50.34-35.81
			C1354.64,3298.28,1353.66,3297.4,1352.03,3295.39z M1604.96,726.5c0.61,0.78,1.21,1.56,1.82,2.34
			c-16.93,23.57-39.84,40.67-63.46,57.67c1.53,1.26,2.4,2.22,3.47,2.83c21.39,12.21,42.69,24.57,64.27,36.44
			c6.95,3.82,14.35,7.76,22,9.18c29.04,5.38,57.69,3.34,85.18-8.19c65.77-27.56,100.13-97.23,99.06-161.25
			c-0.13-7.94-0.66-16.39-4.8-24.98c-5.35,3.38-9.59,6.6-14.28,8.87c-4.22,2.04-7.79,7.54-14.28,4.07
			c8.08-18.9,16.31-37.04,23.65-55.53c14.29-36.05,10.95-70.49-11.32-102.52c-12.97-18.66-30.07-32.84-50.19-43.32
			c-23.87-12.44-49.38-16.52-76.17-16.72c-35.3-0.26-67.75,8.45-98.03,26.14c-2.78,1.63-5.41,3.51-8.57,5.58
			c5.2,8.65,9.4,17.03,14.89,24.46c7.04,9.51,6.39,19.63,5.18,30c-11.91,4.08-12.3,4.08-17.97-5.79
			c-8.79-15.3-17.91-30.45-25.91-46.16c-27-53.05-70.87-85.24-126.37-103.14c-25.6-8.25-52.02-10.08-78.81-9.35
			c-22.46,0.61-44.49,3.71-65.74,10.71c-48.21,15.88-88.36,44.23-122.62,81.27c-7.41,8.01-14.46,16.34-21.89,24.76
			c-3.59-1.32-6.84-2.51-10.3-3.79c3.4-9.77,6.49-18.67,9.6-27.62c-1.81-0.47-2.47-0.86-3.02-0.74c-5.86,1.25-11.68,2.72-17.56,3.87
			c-29.68,5.85-57.35,16.92-83.17,32.52c-13.69,8.27-27.34,17.01-36.99,30.07c-23.69,32.03-30.37,68.05-23.93,106.99
			c13.78,83.33,98.49,128.51,156.85,120.37c10.73-1.5,21.53-2.52,32.1-3.74c0.13-1.54,0.42-2.29,0.19-2.81
			c-0.93-2.12-2.06-4.16-3.05-6.26c-6.89-14.59-11.83-29.73-11.4-46.07c0.2-7.76,1.16-15.54,8.36-21.98
			c2.03,5.18,3.66,9.49,5.4,13.77c10.72,26.33,23.18,51.71,42.37,73.07c29.51,32.84,65.13,54.46,109.93,58.86
			c6.95,0.68,13.96,1.25,20.8,2.58c42.64,8.3,84.92,4.58,126.86-4.35c37.64-8.01,73.11-22.14,106.38-41.58
			C1570.71,746.97,1587.81,736.68,1604.96,726.5z M1273.57,1731.79c209.76-1.18,369.92-170.07,373.56-368.62
			c3.85-209.89-163.02-380.1-367.7-383.23c-208.87-3.2-378.25,166.23-379.63,373.39C898.44,1556.94,1061.03,1730.74,1273.57,1731.79
			z M1138.33,1742.06c-1.51,2.82-3.2,5.64-4.57,8.61c-18.34,39.54-37.55,78.72-54.74,118.76c-27.73,64.6-51.35,130.7-65.91,199.7
			c-8.07,38.25-13.53,76.75-9.17,116.02c3.78,34.07,17.26,63.33,42.42,86.93c22.31,20.93,48.94,34.26,77.57,44.02
			c39.09,13.32,79.54,19.23,120.59,21.4c14.21,0.75,28.5,0.12,42.88,0.12c15.13-29.77,7.51-59.29,1.05-89.18
			c-4.48-0.92-8.35-1.75-12.25-2.52c-29.77-5.83-59.07-13.39-87.4-24.33c-18.07-6.98-35.3-15.54-50.8-27.4
			c-18.23-13.95-23.92-31.95-18.58-53.94c4.98-20.53,16.23-37.74,28.37-54.55c5.96-8.25,13.3-14.79,22.02-19.99
			c25.15-15,52.08-25.24,80.96-30.03c10.07-1.67,20.32-2.26,31.01-3.4c2.1-13.26,4.21-26.37,6.24-39.49
			c8.37-53.96,16.95-107.89,24.86-161.92c1.46-10.01,6.6-14.48,15.44-16.81c9.73-2.56,16.69,2.71,16.06,12.82
			c-0.33,5.3-1.33,10.57-2.18,15.83c-8.53,52.93-17.03,105.87-25.71,158.78c-1.92,11.72-4.51,23.33-6.87,35.4
			c37.43,10.4,67,31.93,92.99,58.99c2.53,2.64,5.11,5.33,7.08,8.38c3.39,5.25,2.29,11.29-2.28,15.31
			c-4.35,3.82-10.89,3.99-15.57,0.13c-2.04-1.68-3.65-3.87-5.47-5.82c-16.01-17.21-34.07-31.79-54.94-42.76
			c-18.97-9.98-38.98-14.91-60.58-13.47c-27.05,1.8-51.96,10.38-76.28,21.82c-29.07,13.67-42.68,38.95-51.81,67.49
			c-3.39,10.6-0.64,20.65,9.24,27.34c7.97,5.4,15.86,11.13,24.44,15.38c35.52,17.59,73.61,27.33,112.4,33.79
			c14.01,2.33,20.57,9.05,23.04,21.84c0.38,1.96,0.97,3.88,1.36,5.83c4.49,22.24,8.88,44.5,5.03,67.35
			c-0.85,5.08-2.09,10.09-3.29,15.79c8.16-0.32,12.76,3.91,17.44,9.11c17.94,19.92,38.17,37.19,61.95,49.88
			c15.24,8.13,31.24,10.87,48.23,5.85c32.71-9.68,58.08-29.79,76.84-57.42c17.41-25.64,29.45-54.34,40.9-83.14
			c20.75-52.21,34.95-106.09,40.92-162.01c2.8-26.19,4.48-52.58,1.87-78.77c-3.53-35.39-7.99-70.75-13.64-105.87
			c-12.89-80.15-29.82-159.52-49.28-238.33c-0.89-3.62-2.91-6.97-4.45-10.56C1417.74,1763.38,1286.22,1790.36,1138.33,1742.06z
			 M1356.46,2398.23c-2.43,6.53-4.61,12.1-6.58,17.74c-91.33,260.9-182.64,521.81-273.95,782.72c-9.87,17.31-9.89,36.05-8.02,55.07
			c0.1,0.99,0.07,2,0.16,2.99c2.19,25.97,6.23,51.55,15.91,75.94c4.46,11.24,10.12,21.81,18.95,30.25
			c25.69,24.56,56.92,38.14,91.91,38.05c42.19-0.11,78.18-17.17,106.09-49.65c5.19-6.05,10.65-11.95,8.72-21
			c-0.26-1.2,0.37-2.62,0.68-3.91c6.31-26.87,12.71-53.72,18.94-80.6c14.88-64.16,29.76-128.32,44.51-192.51
			c17.14-74.55,34.1-149.15,51.23-223.71c12.29-53.49,24.74-106.94,37.11-160.41c20.32-87.82,40.64-175.64,60.93-263.46
			c2.68-11.59,5.16-23.22,7.82-35.19c-1.69,0.22-2.53,0.07-2.92,0.42c-2.2,2.03-4.32,4.15-6.42,6.29
			c-13.61,13.9-28.76,25.8-46.01,34.85c-33.81,17.74-67.36,18.95-100.44-1.97C1369.19,2406.41,1363.34,2402.63,1356.46,2398.23z
			 M1123.42,2937.69c71.61-187.14,142.33-371.92,212.44-555.14c-6.21-6.88-11.32-13.05-17.04-18.57c-1.82-1.76-5.27-2.44-8-2.52
			c-8.03-0.23-15.98,0.92-24.11,0.8c-29.34-0.44-58.58-1.72-87.71-5.33c-1.94-0.24-4.51,0.76-6.09,2.05
			c-10.82,8.84-21.54,17.8-32.12,26.92c-54.17,46.73-104.1,97.43-145.16,156.33c-21.23,30.45-39.22,62.63-50.63,98.17
			c-9,28-12.94,56.45-6.78,85.63c4.65,22.03,13.39,42.47,24.63,61.9c22.08,38.16,50.97,70.77,83.19,100.45
			C1084.13,2905.05,1103.33,2920.5,1123.42,2937.69z M1090.44,990.86c88.88-44.97,179.56-57.26,273.89-34.23
			c94.58,23.1,169.19,76.72,226.89,155.19c5.35-86.94,23.81-170.63,46.62-254.02c-13.29-6.16-25.81-12.23-38.55-17.79
			c-14.05-6.13-28.01-12.29-40-22.16c-5.39-4.44-11.82-7.77-16.67-12.7c-9.34-9.49-18.08-9.29-28.7-1.86
			c-12.05,8.43-25.77,13.63-40.3,16.56c-14,2.82-27.9,6.17-41.92,8.91c-31.54,6.16-63.45,7.67-95.45,5.8
			c-24.93-1.46-49.18-6.73-73.21-13.86c-21.69-6.44-41.85-15.54-59.52-29.39c-11.74-9.2-22.1-20.14-33.21-30.16
			c-2.07-1.86-4.91-4.46-7.15-4.24c-8.48,0.82-16.87,2.67-25.84,4.23c0.45,2.86,0.49,4.84,1.1,6.63c7.84,23.1,6.33,46.96,2.73,70.12
			c-7.49,48.28-23.06,94.27-44.73,138.14C1094.42,980.07,1093.01,984.43,1090.44,990.86z M1444.52,2935.02
			c-4.93,19.95-9.27,38.05-13.87,56.08c-20.72,81.21-41.54,162.39-62.22,243.61c-1.21,4.77-2.71,9.98-1.95,14.65
			c1.81,11.1,4.01,22.29,7.67,32.89c5.26,15.2,16.61,24.3,32.37,28.24c18.72,4.68,37.61,4.48,56.56,2.71
			c4.17-0.39,8.36-2.21,12.2-4.08c51.02-24.83,87.28-63.5,108.16-116.32c1.5-3.8,2.14-8.46,1.53-12.47
			c-1.95-12.81-4.1-25.65-7.19-38.22c-12.11-49.29-31.13-95.44-63.28-135.41c-16.94-21.06-35.72-40.39-55.5-58.76
			C1454.67,2943.89,1450.18,2940.04,1444.52,2935.02z"/>
		<path class="st2" d="M1909.06,2338.12c-11.97,0.73-23.21,1.42-35.43,2.17c-0.51,3.98-1.17,7.79-1.46,11.62
			c-1.29,16.6-2.37,33.22-3.75,49.81c-1.15,13.82-3.87,16.13-17.23,15.81c-35.3-0.85-70.59-1.67-105.89-2.51
			c-2.33-0.06-4.67,0-6.99-0.21c-8.06-0.7-10.97-3.38-10.24-11.47c1.03-11.59,2.9-23.1,4.58-34.63
			c5.76-39.52,11.6-79.03,17.41-118.55c5.57-37.87,11.17-75.73,16.73-113.6c3.82-26.01,7.67-52.02,11.34-78.06
			c1.74-12.34,3.58-14.15,15.67-14.31c59.29-0.77,118.57-1.58,177.86-2.36c13.39-0.18,15.61,1.67,18.23,14.26
			c12.2,58.64,24.43,117.27,36.69,175.9c11.58,55.37,23.22,110.72,34.82,166.09c0.41,1.95,0.71,3.94,0.92,5.92
			c0.83,8-2.86,12.71-10.76,13.63c-1.97,0.23-3.99,0.08-5.99,0.08c-34.98,0-69.95,0-104.93,0c-1.33,0-2.67,0.05-4-0.02
			c-9.72-0.49-12.97-3.33-14.73-12.71c-3.86-20.61-7.75-41.21-11.64-61.81C1910.03,2341.91,1909.67,2340.65,1909.06,2338.12z
			 M1917.86,2211.08c0-26.97,0-52.36,0-78.55c-16.11,0.55-30.85,1.05-46.53,1.59c1.76,27.17,3.44,53.17,5.17,79.99
			C1891.12,2213.04,1904.56,2212.06,1917.86,2211.08z"/>
		<path class="st3" d="M2244.93,2316.2c17.95-1.04,34.21-1.93,50.46-2.95c32.92-2.07,65.83-4.27,98.75-6.29
			c9.21-0.56,13.36,3.26,14.07,12.74c1.97,26.25,3.91,52.49,5.63,78.76c0.84,12.87-1.5,15.39-14.26,15.93
			c-42.61,1.79-85.23,3.5-127.84,5.16c-51.61,2.01-103.22,3.94-154.83,5.88c-6.66,0.25-13.32,0.52-19.99,0.54
			c-12.05,0.04-15.25-4.75-10.2-15.49c9.93-21.09,20.02-42.11,30.05-63.15c33.24-69.75,66.49-139.49,99.72-209.25
			c1.53-3.2,2.87-6.49,4.99-11.34c-4.98,0.33-8.21,0.51-11.43,0.77c-46.49,3.71-92.98,7.44-139.47,11.16
			c-10.16,0.81-14.07-2.43-14.63-12.72c-1.39-25.62-2.71-51.24-3.84-76.87c-0.48-10.96,1.15-12.65,12.17-13.55
			c48.48-3.96,96.96-7.81,145.44-11.76c45.16-3.68,90.3-7.47,135.46-11.16c5.64-0.46,11.31-1,16.96-0.92
			c6.53,0.09,9.69,4.12,8.35,10.56c-0.74,3.54-2.3,6.94-3.74,10.29c-38.53,89.64-77.09,179.27-115.64,268.9
			C2249.19,2305.93,2247.34,2310.45,2244.93,2316.2z"/>
		<path class="st3" d="M2542.24,2112.77c0,15.41,0,29.67,0,45.13c10.59-0.96,20.71-1.84,30.83-2.8c25.21-2.39,50.4-4.97,75.63-7.17
			c12.71-1.11,15.9,2.04,17.12,14.81c1.78,18.57,3.75,37.12,5.57,55.69c0.42,4.31,0.85,8.65,0.78,12.97
			c-0.1,6.14-2.11,8.27-8.23,9.2c-2.62,0.4-5.31,0.39-7.98,0.47c-29.98,0.92-59.96,1.82-89.95,2.74c-2.94,0.09-5.87,0.34-9.99,0.59
			c0.53,12.62,1.04,24.77,1.6,38.26c5.43-0.43,10.26-0.64,15.05-1.22c28.44-3.45,56.88-6.92,85.31-10.52
			c8.75-1.11,14.83,1.26,14.84,13.1c0.02,27.99,1.1,55.98,1.59,83.97c0.18,10.35-2.94,13.62-13.48,14.33
			c-39.23,2.66-78.47,5.18-117.7,7.79c-25.6,1.7-51.2,3.49-76.8,5.22c-3.32,0.23-6.66,0.58-9.98,0.51
			c-8.44-0.19-12.06-3.5-12.68-12.01c-2-27.25-3.86-54.51-5.74-81.77c-3.06-44.55-6.11-89.09-9.13-133.64
			c-2.34-34.58-4.62-69.16-6.92-103.74c-0.75-11.3-1.59-22.61-2.14-33.92c-0.52-10.7,0.67-12.3,11.14-13.61
			c25.12-3.14,50.28-6.02,75.42-8.99c43.67-5.14,87.36-10.19,131.01-15.44c16.18-1.95,18.64-0.32,19.84,16.29
			c1.8,24.93,3.38,49.87,4.87,74.82c0.82,13.67-1.67,16.43-15.03,17.81c-33.14,3.43-66.28,6.84-99.42,10.28
			C2546.08,2112.11,2544.5,2112.42,2542.24,2112.77z"/>
		<path class="st3" d="M2818.35,2139.03c21.46-2.03,42-3.94,62.54-5.92c15.25-1.47,30.49-3.13,45.75-4.52
			c8.61-0.78,13.6,2.89,14.52,11.34c2.5,23.18,4.82,46.39,6.78,69.62c0.83,9.86-1.8,12.13-12.17,12.42
			c-28.65,0.83-57.3,1.59-85.94,2.43c-5.63,0.17-11.25,0.55-16.83,0.84c0,12.92,0,25.13,0,38.76c9.15-0.96,17.25-1.7,25.33-2.69
			c24.13-2.94,48.26-5.99,72.39-8.96c2.31-0.28,4.66-0.45,6.98-0.4c7.64,0.18,10.42,2.53,10.62,10.08
			c0.79,29.31,1.45,58.63,1.93,87.96c0.15,9.23-3.76,13.04-13.35,13.69c-31.25,2.11-62.5,4.13-93.76,6.14
			c-35.24,2.26-70.49,4.47-105.74,6.71c-1.66,0.11-3.32,0.44-4.98,0.43c-8.18-0.06-12.08-3.5-12.82-11.89
			c-1.12-12.61-2.02-25.24-2.87-37.87c-2.97-44.21-5.83-88.44-8.82-132.65c-2.94-43.55-6.2-87.07-8.87-130.64
			c-1.14-18.61-1.26-37.29-1.58-55.94c-0.14-8.16,0.78-8.84,9.05-9.82c33.08-3.9,66.16-7.83,99.24-11.69
			c37.39-4.35,74.78-8.65,112.18-12.93c10.24-1.17,13.65,1.12,14.45,11.31c2.21,28.23,4.08,56.49,5.81,84.76
			c0.51,8.3-2.55,11.41-11.95,12.51c-18.2,2.14-36.43,3.93-54.65,5.86c-17.54,1.86-35.08,3.71-53.22,5.62
			C2818.35,2108.58,2818.35,2123.06,2818.35,2139.03z"/>
		<path class="st4" d="M2067.99,1492.54c-28.33,0-55.59,0-83.95,0c-0.19,3.75-0.52,7.26-0.53,10.76
			c-0.04,42.66-0.01,85.31-0.03,127.97c-0.01,21.15-3.02,24.23-24.32,26.8c-29.74,3.6-59.38,8.14-89.19,11.11
			c-33.12,3.3-66.35,5.44-99.56,7.74c-6.59,0.46-13.33-0.31-19.93-1.12c-13.15-1.6-19.55-9.2-18.16-22.38
			c3.32-31.46,7.02-62.88,10.67-94.3c4.3-37.03,8.64-74.06,13.08-111.08c3.69-30.74,7.59-61.45,11.3-92.18
			c2.88-23.8,5.57-47.63,8.41-71.43c4.54-38.01,9.21-76,13.7-114.01c3.59-30.42,6.94-60.87,10.46-91.3
			c4.5-39.01,9.37-77.97,13.51-117.02c4.42-41.7,8.21-83.47,12.19-125.21c0.7-7.37,3.84-13.28,9.54-17.91
			c7.45-6.05,16.4-8.74,25.41-11.14c24.27-6.46,49.19-8.3,74.1-10c76.22-5.19,152.51-3.85,228.79-1.72
			c19.64,0.55,39.28,1.42,58.92,2.14c2,0.07,4.01-0.01,5.99,0.23c12.7,1.55,16.42,5.77,17.52,18.61
			c4.8,56.07,9.65,112.13,14.63,168.18c5.03,56.71,10.24,113.41,15.35,170.11c4.48,49.74,8.97,99.48,13.37,149.23
			c3.72,42.12,7.27,84.26,10.99,126.39c3.13,35.48,6.41,70.96,9.59,106.44c3.06,34.16,6.03,68.32,9.13,102.47
			c0.96,10.63-3.93,16.4-14.95,16.03c-17.64-0.59-35.27-1.64-52.89-2.62c-33.26-1.84-66.51-3.74-99.76-5.67
			c-17.29-1-34.58-2.05-51.86-3.24c-3.26-0.23-6.55-1-9.69-1.96c-6.39-1.95-9.7-6.18-10.2-13.15c-1.71-23.9-3.81-47.78-5.67-71.68
			c-1.5-19.26-2.86-38.53-4.37-57.78C2069.38,1497.59,2068.61,1495.37,2067.99,1492.54z M1757.92,1651.86
			c67.8-1.25,133.51-10.85,199.79-19.35c0-4.69,0-8.33,0-11.97c0-44.33-0.02-88.65,0.01-132.98c0.01-14.98,6.17-21.11,21.26-21.13
			c30.33-0.04,60.66-0.05,90.98,0.04c3.62,0.01,7.3,0.42,10.85,1.14c9.25,1.88,12.15,5.34,12.82,14.95
			c0.37,5.32,0.42,10.65,0.84,15.96c2.58,32.5,5.19,65.01,7.87,97.5c0.64,7.8,1.58,15.58,2.38,23.38
			c63.13,3.53,125.11,6.99,187.48,10.47c-0.27-5.11-0.35-8.77-0.67-12.41c-2.63-29.83-5.33-59.65-7.95-89.48
			c-2.04-23.2-3.95-46.42-6.03-69.62c-3.09-34.45-6.32-68.89-9.4-103.34c-2.28-25.53-4.36-51.07-6.64-76.6
			c-3.77-42.07-7.69-84.13-11.44-126.2c-2.28-25.53-4.28-51.08-6.57-76.6c-3.7-41.08-7.61-82.14-11.3-123.23
			c-3.01-33.47-5.78-66.96-8.74-100.43c-0.81-9.22-1.9-18.41-2.82-27.24c-1.4-0.54-2.01-0.97-2.63-0.99
			c-32.28-1.15-64.56-3.04-96.85-3.21c-49.97-0.26-99.94,0.46-149.91,1.13c-31.64,0.43-63.18,2.63-94.33,8.56
			c-8.4,1.6-16.55,4.5-24.7,6.77C1824.19,1109.35,1788.81,1379.71,1757.92,1651.86z"/>
		<path class="st5" d="M2493.19,1487.59c-8.9-162.74-17.75-324.62-26.65-487.47c-4.27,0-7.53,0-10.78,0
			c-25.33,0-50.7-0.83-75.98,0.31c-14.6,0.66-22.02-10.38-19.37-23.01c7.17-34.22,13.71-68.57,20.48-102.87
			c3.61-18.29,7.09-36.61,10.79-54.89c1.9-9.39,5.43-12.54,14.71-13.26c53.8-4.19,107.61-8.29,161.42-12.45
			c25.57-1.98,51.14-4.04,76.72-5.97c4.64-0.35,9.34-0.52,13.98-0.23c7.99,0.5,11.92,4.53,12.83,12.56c0.19,1.65,0.12,3.33,0.16,5
			c1.61,60.96,3.13,121.93,4.84,182.89c2.6,92.94,5.33,185.87,8,278.8c1.99,69.28,3.98,138.57,5.98,207.85
			c0.06,1.95,0.28,3.9,0.48,6.58c2.82,0.26,5.34,0.75,7.84,0.67c31.98-0.98,63.95-2,95.92-3.1c11.86-0.41,18.87,5.42,19.74,17.38
			c2.07,28.58,3.92,57.17,5.83,85.75c0.89,13.3,1.58,26.6,2.56,39.89c0.83,11.33-3.33,16.84-14.81,17.93
			c-9.28,0.89-18.62,1.15-27.94,1.51c-43.29,1.65-86.58,3.13-129.86,4.88c-75.9,3.07-151.8,6.36-227.7,9.34
			c-4.77,0.19-9.96-0.7-14.32-2.57c-5.46-2.34-8.12-7.14-8.38-13.61c-0.6-14.97-1.93-29.92-2.83-44.88
			c-1.61-26.94-3.21-53.87-4.65-80.82c-0.66-12.31,2.59-16.51,14.84-17.81c25.84-2.73,51.73-4.93,77.6-7.37
			C2486.9,1488.42,2489.17,1488.08,2493.19,1487.59z M2386.99,974.49c4.93,0,8.22,0,11.51,0c23.99,0,47.98-0.03,71.97,0.01
			c14.33,0.02,20.5,6.01,21.19,20.39c0.92,18.95,1.72,37.91,2.78,56.85c2.34,41.88,4.88,83.76,7.2,125.64
			c1.75,31.58,3.21,63.18,4.94,94.77c2.28,41.54,4.69,83.07,7.05,124.6c1.23,21.61,2.57,43.2,3.65,64.82
			c0.61,12.29,1.29,24.62,0.98,36.91c-0.23,9.37-4.47,13.01-13.66,13.83c-23.21,2.05-46.43,3.98-69.64,6.06
			c-5.51,0.49-10.98,1.4-17.05,2.19c2.21,36.79,4.38,72.86,6.55,108.91c9.82,0,18.77,0.3,27.68-0.05c39.26-1.57,78.51-3.41,117.76-5
			c26.62-1.08,53.26-1.82,79.88-2.88c46.91-1.87,93.82-3.86,140.73-5.84c1.88-0.08,3.75-0.57,6.39-1
			c-2.44-36.88-4.85-73.32-7.25-109.66c-1.88-0.31-2.84-0.64-3.79-0.6c-24.62,0.94-49.25,1.95-73.87,2.87
			c-10.65,0.4-21.31,0.76-31.97,0.84c-7.58,0.06-12.38-3.72-13.71-10.46c-0.51-2.59-0.48-5.3-0.57-7.97
			c-1.07-32.62-2.19-65.24-3.15-97.87c-2.08-70.58-4.07-141.16-6.1-211.74c-1.31-45.61-2.68-91.22-3.91-136.84
			c-1.7-62.93-3.24-125.86-4.96-188.79c-0.37-13.54-1.18-27.06-1.81-41.24c-77.33,6.09-153.86,12.12-230.75,18.18
			C2405.68,879.24,2396.47,926.17,2386.99,974.49z"/>
		<path class="st6" d="M1673.6,2632.36c17.18-1.03,33-1.98,49.65-2.98c5.85,41.58,11.57,82.26,17.29,122.94
			c0.25-0.04,0.5-0.09,0.75-0.13c2.12-41.15,4.24-82.31,6.4-124.23c18.45-1.17,35.59-2.26,54.01-3.43
			c5.98,42.14,11.89,83.75,17.8,125.36c0.66-0.04,1.32-0.09,1.97-0.13c0-41.95,1.84-83.8,5.54-126.64
			c16.35-1.04,32.12-2.05,47.76-3.04c2.06,9-6.66,181.45-9.95,198.55c-20.62,1.23-41.47,2.48-63.53,3.8
			c-6.86-31.91-13.56-63.07-20.26-94.22c-0.39-0.06-0.77-0.12-1.16-0.19c-2.59,31.66-5.18,63.31-7.86,96.09
			c-21.23,1.34-41.99,2.65-63.56,4.02C1696.82,2762.81,1685.35,2698.38,1673.6,2632.36z"/>
		<path class="st7" d="M2053.36,1802.38c34.87-1.14,69.09,4.06,103.19,10.6c35,6.71,69.96,13.74,105.13,19.45
			c55.18,8.97,109.65,4.27,163.19-11.36c21.42-6.25,42.86-12.52,63.91-19.86c54.16-18.88,109.68-24.05,166.54-18.69
			c57.26,5.4,113.36,16.42,168.33,33.27c3.17,0.97,6.46,1.88,9.31,3.5c5.33,3.02,7.44,9.04,5.69,14.62
			c-1.9,6.07-7.46,9.85-13.83,9.04c-2.61-0.33-5.14-1.36-7.69-2.14c-53.7-16.42-108.5-27.15-164.42-32.56
			c-56.68-5.49-111.6,1.42-165.27,20.4c-32.35,11.43-65.22,21.25-99.05,27.57c-46.73,8.73-93.53,8.54-140.21,0.49
			c-37.42-6.45-74.69-13.79-111.93-21.21c-45.3-9.02-90.7-9.06-136.27-2.88c-76.48,10.37-149.77,31.64-219.66,64.5
			c-1.51,0.71-2.98,1.54-4.57,2.02c-6.11,1.84-12.43-0.81-15.3-6.29c-2.87-5.48-1.54-12.37,3.69-16.08
			c3.22-2.28,6.98-3.86,10.61-5.52c87.29-39.85,178.61-63.7,274.61-68.84C2050.7,1802.31,2052.03,1802.38,2053.36,1802.38z"/>
		<path class="st7" d="M2606.98,3155.1c-34.55-0.76-68.35-6.83-102.27-12.07c-31.26-4.83-62.55-9.69-93.97-13.22
			c-53.25-6-104.98,2.39-155.54,19.09c-19.6,6.48-39.16,13.16-58.46,20.47c-47.98,18.18-97.35,26.68-148.78,25.1
			c-63.64-1.96-125.94-11.82-187.36-28.07c-2.89-0.77-5.86-1.5-8.54-2.79c-5.91-2.84-8.61-9.06-6.88-14.99
			c1.79-6.14,7.16-9.93,13.65-9.28c2.62,0.26,5.19,1.19,7.76,1.87c69.28,18.35,139.5,29.05,211.42,27.11
			c32.33-0.87,63.4-7.52,93.87-17.83c32.8-11.09,65.38-22.97,98.52-32.94c52.08-15.66,105.42-19.29,159.28-11.96
			c37.29,5.07,74.52,10.74,111.62,17.05c48.56,8.26,96.82,6.96,145.19-1.43c75.08-13.02,146.54-36.75,214.43-71.32
			c1.77-0.9,3.56-1.89,5.46-2.39c5.79-1.55,11.7,1.08,14.44,6.19c2.68,5.01,1.76,11.81-2.57,15.58c-2.22,1.93-4.97,3.33-7.63,4.67
			c-80.17,40.4-164.61,66.9-253.84,77.51C2640.27,3153.4,2623.58,3153.92,2606.98,3155.1z"/>
		<path class="st6" d="M3076.22,2746.14c-16.94,1.02-32.21,1.94-47.96,2.89c-0.96-3.01-1.83-5.76-2.86-8.98
			c-1.16,0.66-2.37,1.1-3.26,1.9c-8.17,7.42-17.38,12.15-28.75,12.02c-17.08-0.19-29.08-10.22-31.3-27.39
			c-1.58-12.21-2.37-24.53-3.09-36.83c-1.33-22.62-1.78-45.3-3.64-67.86c-2.74-33.26,31.93-41.92,52.05-31.4
			c3.16,1.65,6.23,3.48,10.19,5.69c-0.76-14.9-1.47-28.76-2.24-44.05c16.3-1.04,32.03-2.04,48.91-3.12
			C3068.26,2614.92,3072.21,2679.92,3076.22,2746.14z M3024.2,2699.87c-1.5-24.81-2.91-48.68-4.43-72.54
			c-0.19-2.95-0.85-5.9-1.57-8.78c-0.99-3.93-3.92-5.01-7.65-4.68c-3.57,0.32-5.5,2.58-5.79,5.79c-0.38,4.28-0.37,8.63-0.13,12.92
			c1.22,21.55,2.51,43.09,3.91,64.63c0.45,6.95,1.1,13.91,2.11,20.8c0.51,3.5,2.68,6.15,6.79,5.93c4.4-0.24,6.64-2.81,6.73-7.07
			C3024.3,2710.89,3024.2,2704.91,3024.2,2699.87z"/>
		<path class="st6" d="M2483.77,2781.96c-16.17,0.95-31.66,1.86-48.46,2.85c-3.27-53.93-6.48-106.93-9.78-161.33
			c16.8-1.09,32.83-2.12,49.5-3.2c0.44,3.91,0.81,7.11,1.27,11.22c1.47-1.18,2.76-1.9,3.61-2.96c9.68-12.07,22.67-14.75,36.89-12.07
			c10.93,2.06,18.62,8.87,21.34,20c1.58,6.44,2.79,13.06,3.21,19.66c2.48,39.21,4.69,78.43,6.95,117.65
			c0.05,0.95-0.27,1.93-0.62,4.24c-15.54,0.96-31.25,1.93-47.7,2.95c-0.58-6.12-1.23-11.35-1.56-16.6
			c-2.13-34.56-4.17-69.12-6.28-103.68c-0.18-2.98-0.46-5.98-0.99-8.92c-0.65-3.62-2.53-6.09-6.7-5.95
			c-4.56,0.15-6.76,2.69-6.66,6.98c0.28,12.64,0.54,25.29,1.22,37.92c1.54,28.59,3.34,57.16,5.01,85.75
			C2484.1,2777.77,2483.91,2779.08,2483.77,2781.96z"/>
		<path class="st6" d="M2816.44,2693.53c0,12.23,0.84,22.61-0.19,32.8c-1.76,17.33-11.29,29.7-27.59,36.03
			c-17.58,6.83-35.7,7.41-53.91,2.53c-14.24-3.82-22.52-13.81-26.31-27.48c-2.03-7.32-3.24-15-3.76-22.6
			c-1.35-19.92-2.11-39.88-3.09-59.82c-0.05-1-0.01-2,0.01-3c0.66-30.81,14.26-46.61,44.76-51.2c12.97-1.95,25.96-1.31,38.29,3.86
			c15.27,6.39,24.88,17.64,27.44,34.12c1.48,9.51,2.08,19.17,2.82,28.78C2815.64,2676.84,2816.02,2686.15,2816.44,2693.53z
			 M2749.8,2651.05c0.06,0,0.13,0,0.19,0c1.44,24.2,2.82,48.4,4.4,72.59c0.26,3.93,0.97,7.99,2.38,11.63
			c0.65,1.67,3.63,3.58,5.34,3.4c2.18-0.23,5.26-2.07,5.95-3.94c1.2-3.29,1.32-7.16,1.13-10.75c-1.1-20.89-2.38-41.77-3.7-62.65
			c-0.52-8.28-1.11-16.57-2.07-24.82c-0.47-4.05-1.92-8.2-7.2-7.83c-4.97,0.35-6.48,3.9-6.43,8.42
			C2749.84,2641.75,2749.8,2646.4,2749.8,2651.05z"/>
		<path class="st6" d="M2944.36,2687.17c0,10.63,0.89,21.35-0.21,31.86c-1.73,16.51-10.92,28.54-26.31,34.84
			c-18.12,7.41-36.89,8.12-55.77,2.8c-13.82-3.89-21.81-13.75-25.56-26.98c-2.07-7.31-3.3-14.99-3.81-22.58
			c-1.36-20.25-2.12-40.54-3.12-60.82c-0.03-0.66,0-1.33,0.01-2c0.6-31.2,14.61-47.34,45.46-51.61c11.94-1.65,23.91-1.16,35.45,3.17
			c16.67,6.26,27.42,17.83,29.63,35.62c2.3,18.47,3.3,37.09,4.87,55.65C2944.8,2687.14,2944.58,2687.16,2944.36,2687.17z
			 M2877.88,2641.37c1.56,26.23,2.97,50.43,4.5,74.63c0.21,3.29,0.43,6.87,1.85,9.7c1.12,2.23,3.9,4.52,6.31,5
			c3.11,0.63,5.65-1.71,6.11-5.19c0.39-2.95,0.77-5.95,0.6-8.9c-1.21-21.88-2.47-43.77-3.92-65.64c-0.55-8.27-1.43-16.53-2.52-24.74
			c-0.49-3.65-2.94-6.09-6.95-5.55c-3.75,0.5-5.91,2.87-5.96,6.77C2877.84,2632.78,2877.88,2638.09,2877.88,2641.37z"/>
		<path class="st8" d="M2326.39,2723.76c1.42,16.88,3.88,32.37-3.99,47.21c-6.45,12.16-16.06,20.21-29.37,23.77
			c-14.11,3.77-28.31,4.23-42.5,0.63c-19.64-4.99-31.96-18.64-34.37-39.45c-1.99-17.19-2.98-34.51-3.96-51.79
			c-0.58-10.29-0.82-20.66-0.24-30.94c1.03-18.43,10.58-31.2,27.76-37.96c16.36-6.44,33.15-7.25,49.93-2.05
			c15.72,4.87,26.22,15.21,30.74,31.37c4.35,15.56,4.58,31.51,5.57,48.58c-21.29,1.37-42.02,2.7-63.87,4.11
			c1.25,15.5,2.38,30.03,3.61,44.54c0.35,4.18,2.49,6.86,7,6.88c4.72,0.01,7.72-2.51,8.17-7.07c0.51-5.27,0.5-10.62,0.34-15.92
			c-0.18-5.95-0.78-11.88-1.27-18.84c8.22-0.56,15.74-1.08,23.26-1.58C2310.49,2724.76,2317.77,2724.31,2326.39,2723.76z
			 M2275.11,2690c-0.52-7.98-0.89-14.89-1.48-21.77c-0.17-1.95-0.44-4.33-1.63-5.66c-1.57-1.76-4.02-3.58-6.2-3.73
			c-3.13-0.21-5.87,1.85-5.86,5.48c0.01,8.51,0.3,17.01,0.48,25.68C2265.77,2690,2269.71,2690,2275.11,2690z"/>
		<path class="st6" d="M2003.84,2732.11c-21.62,1.42-41.84,2.74-62.51,4.1c-0.33,1.45-0.9,2.67-0.84,3.85
			c0.58,10.98,1.24,21.95,1.95,32.91c0.13,1.99,0.56,3.95,0.88,5.92c0.71,4.43,1.56,8.8,7.39,8.95c5.06,0.13,8.35-3.25,8.69-10.09
			c0.3-5.96-0.37-11.96-0.62-17.94c-0.18-4.27-0.4-8.55-0.66-14.11c15.4-0.95,30.17-1.87,46.24-2.87c1.46,14.72,3.65,28.8-1.94,42.6
			c-6.16,15.21-17.11,25.14-33.36,28.75c-13.52,3-27.08,3.45-40.57,0.03c-20-5.07-32.06-18.25-34.09-38.4
			c-2.64-26.14-4.3-52.47-4.58-78.73c-0.27-25.07,12.2-39.47,36.52-45.63c13.46-3.41,27.08-3.58,40.47,0.47
			c16.14,4.88,27.03,15.2,31.62,31.73C2002.74,2699.17,2003.06,2715.07,2003.84,2732.11z M1953.46,2709.1
			c-0.97-9.5-1.63-17.67-2.71-25.79c-0.49-3.7-2.94-5.78-6.98-5.45c-4.03,0.33-5.97,2.63-5.93,6.49c0.09,8.18,0.35,16.36,0.54,24.76
			C1943.54,2709.1,1947.67,2709.1,1953.46,2709.1z"/>
		<path class="st8" d="M2020.42,2752.43c14.13-0.89,27.91-1.76,42.61-2.69c0.34,4.61,0.48,8.18,0.89,11.72
			c0.49,4.29,1.08,8.57,1.85,12.81c0.68,3.73,2.96,5.8,6.93,5.83c4.05,0.03,7.08-1.36,8.55-5.44c3.53-9.82-1.05-22.36-10.31-27.24
			c-10.01-5.28-20.26-10.08-30.24-15.42c-10.1-5.4-19.57-11.59-23.06-23.57c-4.18-14.38-5.26-28.8-0.25-43.18
			c2.54-7.3,7.92-12.37,14.69-15.64c21.15-10.21,43-11.33,64.86-2.99c12.83,4.9,20.24,14.76,20.96,28.96
			c0.27,5.28,0.63,10.56,1.04,17.2c-14.27,0.9-28.02,1.76-42.9,2.7c-0.66-5.84-1.21-11.34-1.93-16.82c-0.85-6.49-2.9-8.74-7.47-8.56
			c-4.55,0.18-7.27,3.08-8.03,8.57c-1.35,9.83,2.24,17.61,11.16,22.53c6.1,3.37,12.65,5.93,18.91,9.01
			c6.86,3.37,13.76,6.7,20.41,10.46c10.03,5.67,15.37,14.86,16.5,25.97c0.93,9.21,0.94,18.62,0.31,27.87
			c-0.8,11.81-6.97,20.98-17.57,26.15c-22.14,10.8-44.85,11.31-67.56,1.66c-8.75-3.72-14.38-10.57-17.05-19.74
			C2020.93,2772.97,2019.28,2763.26,2020.42,2752.43z"/>
		<path class="st6" d="M2658.14,2688.37c1.57,27.63,3.1,54.42,4.69,82.35c-17.41,1.06-33.8,2.06-51.06,3.11
			c-4-66.03-7.94-131.02-11.95-197.13c29.19-1.76,57.55-3.48,86.84-5.25c0.76,13.34,1.46,25.55,2.22,38.72
			c-11.25,2.89-22.71,0.79-34.25,3.15c-1.8,12.07,0.78,23.75,1.27,36.04c10.57,0,20.67,0,31.45,0c0.74,11.84,1.48,23.62,2.27,36.16
			C2679.1,2686.48,2669.27,2687.37,2658.14,2688.37z"/>
		<path class="st8" d="M2137.86,2670.47c-3.92-0.42-6.83-0.73-10.65-1.14c-0.44-8-0.87-15.84-1.32-24.17
			c3.68-0.62,6.49-1.1,9.63-1.63c0-8.22,0-16.07,0-24.88c15.77-0.97,31.52-1.93,47.94-2.94c0.96,8.66,1.83,16.45,2.75,24.66
			c4.08,0,7.64,0,12.55,0c0.51,8.45,1,16.47,1.52,25.02c-4.59,0.55-8.1,0.97-11.9,1.42c0,7.73-0.32,14.95,0.06,22.14
			c1.13,21.26,2.53,42.5,3.83,63.75c0.08,1.33,0.14,2.66,0.27,3.98c1.41,14.56,1.42,14.56,16.46,16.15
			c0.41,7.85,0.83,15.91,1.31,25.26c-14.15,0.53-27.34,1.59-40.52,1.34c-11.69-0.22-23.36-7.41-24.74-22.69
			c-1.05-11.59-2.1-23.18-2.85-34.79C2140.66,2718.41,2139.32,2694.86,2137.86,2670.47z"/>
		<path class="st8" d="M2395.43,2786.9c-16.49,1.05-32,2.03-48.81,3.09c-4.01-53.73-6.61-107.06-10.09-161.52
			c16.23-1.03,31.99-2.02,48.77-3.08c0,5.7,0,10.46,0,15.22c0.57,0.35,1.13,0.69,1.7,1.04c6.03-10.56,13.62-18.86,27.57-20.49
			c1.19,18.75,2.34,36.85,3.52,55.53c-4.35,0.96-8.17,1.63-11.9,2.67c-10.97,3.03-15.23,7.8-15.14,19.18
			c0.13,15.3,1.1,30.6,1.87,45.89C2393.61,2758.03,2394.52,2771.62,2395.43,2786.9z"/>
		<path class="st9" d="M1273.57,1731.79c-212.53-1.05-375.13-174.84-373.77-378.46c1.38-207.17,170.76-376.59,379.63-373.39
			c204.68,3.13,371.55,173.34,367.7,383.23C1643.48,1561.72,1483.32,1730.6,1273.57,1731.79z M1361.99,1589.94
			c-19.28,6.3-38.79,11.69-59.12,13.03c-14.25,0.94-28.54,1.1-42.82,1.61c-15.19-1.56-30.5-2.34-45.53-4.84
			c-31.43-5.23-59.1-17.66-78.59-44.37c-1.95-2.68-4.54-4.89-6.83-7.32c8.62,23.69,23.55,41.73,45.45,53.41
			c19.32,10.3,40.13,15.56,61.97,16.8c1.78,0.27,3.56,0.53,5.34,0.8c6.91,0.38,13.82,0.75,20.73,1.13
			c13.21-0.04,26.51,0.85,39.62-0.33c21.51-1.94,42.44-6.89,61.85-16.92c18.71-6.68,33.61-19.6,48.42-31.86
			c21.47-17.78,35.39-41.31,43.07-68.28c0.63-2.22,0.59-4.63,0.86-6.94c-5.3,6.21-9.43,12.59-13.37,19.08
			C1423.15,1547.64,1397.64,1574.26,1361.99,1589.94z M1204.13,1266.03c-0.07-0.67-0.15-1.34-0.22-2.01
			c-2.16-9.63-6.9-17.92-13.6-25.01c-11.81-12.52-26.99-13.21-39.8-1.64c-7.98,7.2-14.03,15.86-16.78,26.5
			c-6.89,14.7-9.32,30.3-9.36,46.38c-0.04,4.64-0.47,9.31-0.06,13.9c1.63,18.33,4.94,36.24,16.11,51.55
			c13.47,18.47,32.87,19.27,47.72,1.95c3.43-4,6.49-8.47,8.91-13.14c6.59-12.78,10.94-26.3,11.72-40.79
			c0.21-1.68,0.43-3.36,0.64-5.03c0.06-1.22,0.11-2.45,0.17-3.67c-0.45-11.85-0.65-23.71-1.51-35.53c-0.24-3.29-2.45-6.43-3.76-9.64
			C1204.25,1268.58,1204.19,1267.3,1204.13,1266.03z M1455.93,1335.3c0.55-0.48,1.1-0.95,1.65-1.43
			c-5.17-5.07-9.91-10.69-15.57-15.12c-17.68-13.82-38.69-17.59-60.71-18.82c16.68-8.01,34.16-10.78,52.26-11.25
			c-18.46-10.55-37.09-6.7-55.5-0.69c-25.44,8.3-55.5,31.97-60.08,46.81C1364.13,1312.54,1410.09,1312.54,1455.93,1335.3z"/>
		<path class="st9" d="M1138.33,1742.06c147.89,48.3,279.41,21.32,397.44-79.05c1.55,3.59,3.56,6.94,4.45,10.56
			c19.46,78.81,36.39,158.18,49.28,238.33c5.65,35.12,10.11,70.47,13.64,105.87c2.61,26.19,0.92,52.59-1.87,78.77
			c-5.97,55.92-20.17,109.81-40.92,162.01c-11.44,28.8-23.48,57.5-40.9,83.14c-18.76,27.63-44.12,47.74-76.84,57.42
			c-16.98,5.02-32.98,2.28-48.23-5.85c-23.78-12.69-44.02-29.95-61.95-49.88c-4.69-5.2-9.28-9.43-17.44-9.11
			c1.2-5.7,2.44-10.71,3.29-15.79c3.84-22.85-0.54-45.11-5.03-67.35c-0.4-1.96-0.98-3.87-1.36-5.83
			c-2.47-12.8-9.03-19.51-23.04-21.84c-38.8-6.46-76.89-16.2-112.4-33.79c-8.58-4.25-16.47-9.99-24.44-15.38
			c-9.88-6.68-12.64-16.73-9.24-27.34c9.13-28.54,22.74-53.82,51.81-67.49c24.32-11.44,49.24-20.02,76.28-21.82
			c21.59-1.44,41.6,3.49,60.58,13.47c20.87,10.98,38.92,25.56,54.94,42.76c1.81,1.95,3.43,4.14,5.47,5.82
			c4.68,3.86,11.22,3.69,15.57-0.13c4.58-4.01,5.68-10.05,2.28-15.31c-1.97-3.05-4.55-5.74-7.08-8.38
			c-25.99-27.07-55.56-48.59-92.99-58.99c2.36-12.07,4.95-23.68,6.87-35.4c8.68-52.91,17.17-105.85,25.71-158.78
			c0.85-5.26,1.85-10.53,2.18-15.83c0.62-10.12-6.33-15.39-16.06-12.82c-8.85,2.33-13.98,6.81-15.44,16.81
			c-7.91,54.03-16.49,107.96-24.86,161.92c-2.04,13.12-4.14,26.24-6.24,39.49c-10.69,1.14-20.94,1.73-31.01,3.4
			c-28.88,4.79-55.81,15.03-80.96,30.03c-8.72,5.2-16.06,11.74-22.02,19.99c-12.14,16.8-23.39,34.02-28.37,54.55
			c-5.34,21.99,0.35,39.98,18.58,53.94c15.5,11.86,32.73,20.42,50.8,27.4c28.33,10.94,57.63,18.5,87.4,24.33
			c3.89,0.76,7.77,1.59,12.25,2.52c6.46,29.89,14.08,59.41-1.05,89.18c-14.37,0-28.66,0.63-42.88-0.12
			c-41.04-2.17-81.5-8.08-120.59-21.4c-28.63-9.76-55.27-23.09-77.57-44.02c-25.15-23.6-38.64-52.86-42.42-86.93
			c-4.36-39.27,1.1-77.77,9.17-116.02c14.56-69,38.18-135.1,65.91-199.7c17.19-40.04,36.4-79.21,54.74-118.76
			C1135.13,1747.71,1136.82,1744.89,1138.33,1742.06z"/>
		<path class="st9" d="M1604.96,726.5c-17.16,10.18-34.26,20.46-51.48,30.53c-33.27,19.43-68.73,33.57-106.38,41.58
			c-41.94,8.92-84.22,12.65-126.86,4.35c-6.84-1.33-13.85-1.9-20.8-2.58c-44.81-4.4-80.43-26.02-109.93-58.86
			c-19.19-21.36-31.65-46.74-42.37-73.07c-1.74-4.27-3.37-8.59-5.4-13.77c-7.2,6.44-8.16,14.22-8.36,21.98
			c-0.43,16.34,4.51,31.48,11.4,46.07c0.99,2.1,2.12,4.13,3.05,6.26c0.23,0.52-0.06,1.27-0.19,2.81
			c-10.57,1.22-21.37,2.25-32.1,3.74c-58.36,8.14-143.08-37.04-156.85-120.37c-6.44-38.95,0.24-74.96,23.93-106.99
			c9.65-13.05,23.3-21.8,36.99-30.07c25.82-15.59,53.49-26.67,83.17-32.52c5.88-1.16,11.7-2.62,17.56-3.87
			c0.55-0.12,1.21,0.28,3.02,0.74c-3.11,8.95-6.2,17.85-9.6,27.62c3.47,1.27,6.72,2.47,10.3,3.79c7.42-8.42,14.48-16.75,21.89-24.76
			c34.27-37.04,74.42-65.39,122.62-81.27c21.25-7,43.28-10.09,65.74-10.71c26.79-0.73,53.21,1.09,78.81,9.35
			c55.5,17.89,99.37,50.09,126.37,103.14c8,15.71,17.12,30.86,25.91,46.16c5.67,9.88,6.06,9.87,17.97,5.79
			c1.21-10.37,1.86-20.49-5.18-30c-5.5-7.42-9.7-15.81-14.89-24.46c3.16-2.06,5.79-3.95,8.57-5.58
			c30.28-17.69,62.74-26.4,98.03-26.14c26.79,0.2,52.3,4.28,76.17,16.72c20.12,10.48,37.21,24.66,50.19,43.32
			c22.27,32.03,25.61,66.47,11.32,102.52c-7.33,18.49-15.56,36.63-23.65,55.53c6.49,3.47,10.06-2.03,14.28-4.07
			c4.7-2.27,8.93-5.49,14.28-8.87c4.14,8.6,4.67,17.04,4.8,24.98c1.07,64.02-33.29,133.69-99.06,161.25
			c-27.49,11.52-56.14,13.57-85.18,8.19c-7.65-1.42-15.06-5.36-22-9.18c-21.57-11.87-42.88-24.23-64.27-36.44
			c-1.07-0.61-1.94-1.57-3.47-2.83c23.62-17,46.53-34.1,63.46-57.67c0.63,0.03,1.03-0.26,1.21-0.86c1.76-1.82,3.52-3.63,5.28-5.45
			c-0.52-0.47-1.05-0.94-1.57-1.41c-1.98,1.56-3.96,3.12-5.94,4.68C1605.29,725.8,1605.02,726.04,1604.96,726.5z"/>
		<path class="st9" d="M1356.46,2398.23c6.88,4.4,12.73,8.18,18.62,11.9c33.08,20.92,66.64,19.7,100.44,1.97
			c17.25-9.05,32.4-20.95,46.01-34.85c2.09-2.14,4.21-4.26,6.42-6.29c0.38-0.35,1.23-0.2,2.92-0.42
			c-2.65,11.96-5.14,23.6-7.82,35.19c-20.29,87.82-40.61,175.64-60.93,263.46c-12.37,53.47-24.82,106.92-37.11,160.41
			c-17.13,74.56-34.09,149.15-51.23,223.71c-14.76,64.19-29.63,128.35-44.51,192.51c-6.24,26.89-12.63,53.73-18.94,80.6
			c-0.3,1.3-0.93,2.71-0.68,3.91c1.93,9.06-3.53,14.96-8.72,21c-27.91,32.49-63.91,49.55-106.09,49.65
			c-34.99,0.09-66.22-13.49-91.91-38.05c-8.83-8.44-14.49-19-18.95-30.25c-9.68-24.4-13.72-49.98-15.91-75.94
			c-0.08-1-0.06-2-0.16-2.99c-1.87-19.02-1.85-37.76,8.02-55.07c91.31-260.91,182.62-521.81,273.95-782.72
			C1351.86,2410.33,1354.03,2404.77,1356.46,2398.23z"/>
		<path class="st9" d="M1123.42,2937.69c-20.09-17.19-39.29-32.64-57.38-49.3c-32.22-29.68-61.11-62.29-83.19-100.45
			c-11.24-19.43-19.98-39.87-24.63-61.9c-6.16-29.18-2.21-57.63,6.78-85.63c11.41-35.54,29.4-67.72,50.63-98.17
			c41.06-58.89,90.99-109.6,145.16-156.33c10.58-9.12,21.31-18.08,32.12-26.92c1.57-1.29,4.15-2.29,6.09-2.05
			c29.13,3.61,58.37,4.89,87.71,5.33c8.13,0.12,16.08-1.03,24.11-0.8c2.73,0.08,6.18,0.76,8,2.52c5.72,5.53,10.83,11.69,17.04,18.57
			C1265.75,2565.77,1195.04,2750.55,1123.42,2937.69z"/>
		<path class="st10" d="M1090.44,990.86c2.57-6.43,3.98-10.78,5.98-14.85c21.66-43.87,37.24-89.86,44.73-138.14
			c3.59-23.16,5.1-47.02-2.73-70.12c-0.61-1.79-0.64-3.77-1.1-6.63c8.97-1.56,17.36-3.4,25.84-4.23c2.24-0.22,5.09,2.38,7.15,4.24
			c11.11,10.01,21.47,20.96,33.21,30.16c17.67,13.85,37.82,22.95,59.52,29.39c24.02,7.13,48.27,12.4,73.21,13.86
			c32,1.88,63.9,0.37,95.45-5.8c14.02-2.74,27.92-6.09,41.92-8.91c14.53-2.93,28.25-8.13,40.3-16.56
			c10.62-7.43,19.35-7.63,28.7,1.86c4.85,4.92,11.28,8.25,16.67,12.7c11.99,9.88,25.95,16.03,40,22.16
			c12.74,5.56,25.26,11.63,38.55,17.79c-22.81,83.39-41.27,167.08-46.62,254.02c-57.71-78.47-132.31-132.09-226.89-155.19
			C1270,933.59,1179.31,945.89,1090.44,990.86z"/>
		<path class="st11" d="M1444.52,2935.02c5.65,5.02,10.15,8.87,14.49,12.9c19.79,18.37,38.56,37.7,55.5,58.76
			c32.15,39.97,51.16,86.12,63.28,135.41c3.09,12.58,5.25,25.41,7.19,38.22c0.61,4.01-0.03,8.68-1.53,12.47
			c-20.89,52.82-57.15,91.48-108.16,116.32c-3.84,1.87-8.03,3.69-12.2,4.08c-18.95,1.77-37.84,1.97-56.56-2.71
			c-15.77-3.94-27.11-13.04-32.37-28.24c-3.67-10.59-5.86-21.79-7.67-32.89c-0.76-4.66,0.74-9.87,1.95-14.65
			c20.68-81.22,41.5-162.4,62.22-243.61C1435.25,2973.07,1439.59,2954.97,1444.52,2935.02z"/>
		<path class="st12" d="M1917.86,2211.08c-13.3,0.97-26.74,1.96-41.35,3.03c-1.73-26.81-3.42-52.82-5.17-79.99
			c15.67-0.53,30.41-1.04,46.53-1.59C1917.86,2158.73,1917.86,2184.11,1917.86,2211.08z"/>
		<path class="st9" d="M1757.92,1651.86c30.89-272.16,66.27-542.51,94.3-814.86c8.15-2.27,16.3-5.17,24.7-6.77
			c31.14-5.93,62.69-8.13,94.33-8.56c49.97-0.68,99.94-1.4,149.91-1.13c32.29,0.17,64.57,2.06,96.85,3.21
			c0.62,0.02,1.23,0.45,2.63,0.99c0.92,8.82,2,18.02,2.82,27.24c2.95,33.47,5.73,66.96,8.74,100.43
			c3.69,41.08,7.6,82.14,11.3,123.23c2.3,25.52,4.3,51.07,6.57,76.6c3.76,42.07,7.67,84.13,11.44,126.2
			c2.29,25.53,4.36,51.07,6.64,76.6c3.08,34.45,6.32,68.89,9.4,103.34c2.08,23.2,3.99,46.42,6.03,69.62
			c2.63,29.83,5.32,59.65,7.95,89.48c0.32,3.64,0.4,7.3,0.67,12.41c-62.37-3.48-124.35-6.95-187.48-10.47
			c-0.8-7.8-1.73-15.58-2.38-23.38c-2.68-32.5-5.29-65-7.87-97.5c-0.42-5.31-0.47-10.65-0.84-15.96
			c-0.67-9.6-3.57-13.07-12.82-14.95c-3.55-0.72-7.23-1.13-10.85-1.14c-30.33-0.09-60.66-0.08-90.98-0.04
			c-15.09,0.02-21.25,6.15-21.26,21.13c-0.03,44.33-0.01,88.65-0.01,132.98c0,3.64,0,7.28,0,11.97
			C1891.43,1641.02,1825.72,1650.62,1757.92,1651.86z M2096.41,1032.78c0-3.51,0.14-7.18-0.03-10.84
			c-0.46-10.15-4.92-14.44-15.12-13.97c-24.94,1.14-49.88,2.42-74.8,3.83c-7.85,0.44-12.15,4.81-12.67,12.68
			c-1.9,28.56-3.63,57.13-5.46,85.69c-1.23,19.26-2.56,38.52-3.75,57.79c-0.97,15.62-1.78,31.25-2.68,46.87
			c-0.37,6.47,2.53,10.91,8.47,13.22c2.76,1.07,5.68,1.98,8.6,2.33c20.78,2.52,41.56,5.14,62.4,7.18
			c13.02,1.28,19.51-5.09,20.46-18.51c1.51-21.24,3.05-42.48,4.72-63.7C2089.78,1114.54,2093.11,1073.74,2096.41,1032.78z"/>
		<path class="st9" d="M2386.99,974.49c9.48-48.32,18.69-95.24,28.07-143.08c76.89-6.06,153.42-12.09,230.75-18.18
			c0.63,14.18,1.44,27.71,1.81,41.24c1.71,62.93,3.26,125.86,4.96,188.79c1.23,45.61,2.6,91.22,3.91,136.84
			c2.03,70.58,4.02,141.16,6.1,211.74c0.96,32.63,2.08,65.25,3.15,97.87c0.09,2.66,0.05,5.38,0.57,7.97
			c1.34,6.74,6.14,10.51,13.71,10.46c10.66-0.08,21.32-0.44,31.97-0.84c24.63-0.92,49.25-1.93,73.87-2.87
			c0.95-0.04,1.91,0.29,3.79,0.6c2.4,36.34,4.81,72.78,7.25,109.66c-2.64,0.42-4.51,0.92-6.39,1c-46.91,1.98-93.82,3.97-140.73,5.84
			c-26.62,1.06-53.26,1.8-79.88,2.88c-39.26,1.59-78.5,3.43-117.76,5c-8.91,0.36-17.85,0.05-27.68,0.05
			c-2.17-36.04-4.34-72.12-6.55-108.91c6.07-0.79,11.54-1.69,17.05-2.19c23.21-2.08,46.43-4.01,69.64-6.06
			c9.2-0.81,13.43-4.45,13.66-13.83c0.31-12.29-0.37-24.62-0.98-36.91c-1.07-21.61-2.42-43.21-3.65-64.82
			c-2.36-41.53-4.77-83.06-7.05-124.6c-1.73-31.59-3.19-63.19-4.94-94.77c-2.32-41.88-4.86-83.76-7.2-125.64
			c-1.06-18.94-1.87-37.9-2.78-56.85c-0.69-14.38-6.86-20.36-21.19-20.39c-23.99-0.04-47.98-0.01-71.97-0.01
			C2395.21,974.49,2391.93,974.49,2386.99,974.49z"/>
		<path class="st13" d="M3024.2,2699.87c0,5.04,0.1,11.02-0.03,16.99c-0.09,4.27-2.33,6.83-6.73,7.07
			c-4.12,0.23-6.28-2.43-6.79-5.93c-1.01-6.89-1.66-13.84-2.11-20.8c-1.4-21.54-2.69-43.08-3.91-64.63
			c-0.24-4.29-0.25-8.64,0.13-12.92c0.29-3.22,2.22-5.48,5.79-5.79c3.73-0.33,6.66,0.75,7.65,4.68c0.72,2.88,1.39,5.83,1.57,8.78
			C3021.3,2651.19,3022.71,2675.06,3024.2,2699.87z"/>
		<path class="st13" d="M2749.8,2651.05c0-4.65,0.04-9.3-0.01-13.95c-0.05-4.52,1.45-8.07,6.43-8.42c5.28-0.37,6.73,3.78,7.2,7.83
			c0.95,8.24,1.54,16.53,2.07,24.82c1.32,20.88,2.6,41.76,3.7,62.65c0.19,3.59,0.08,7.46-1.13,10.75c-0.69,1.88-3.77,3.71-5.95,3.94
			c-1.71,0.18-4.69-1.73-5.34-3.4c-1.41-3.64-2.12-7.7-2.38-11.63c-1.58-24.19-2.96-48.39-4.4-72.59
			C2749.92,2651.05,2749.86,2651.05,2749.8,2651.05z"/>
		<path class="st13" d="M2877.88,2641.37c0-3.28-0.05-8.59,0.02-13.91c0.05-3.91,2.21-6.27,5.96-6.77c4.02-0.54,6.47,1.9,6.95,5.55
			c1.09,8.21,1.97,16.47,2.52,24.74c1.44,21.87,2.7,43.75,3.92,65.64c0.16,2.95-0.21,5.96-0.6,8.9c-0.46,3.48-2.99,5.81-6.11,5.19
			c-2.4-0.48-5.19-2.77-6.31-5c-1.42-2.84-1.64-6.41-1.85-9.7C2880.85,2691.81,2879.45,2667.6,2877.88,2641.37z"/>
		<path class="st13" d="M2275.11,2690c-5.39,0-9.33,0-14.69,0c-0.18-8.66-0.47-17.17-0.48-25.68c-0.01-3.63,2.73-5.69,5.86-5.48
			c2.18,0.15,4.63,1.97,6.2,3.73c1.19,1.33,1.46,3.7,1.63,5.66C2274.21,2675.12,2274.58,2682.02,2275.11,2690z"/>
		<path class="st13" d="M1953.46,2709.1c-5.79,0-9.91,0-15.07,0c-0.19-8.4-0.46-16.58-0.54-24.76c-0.04-3.86,1.91-6.16,5.93-6.49
			c4.04-0.33,6.49,1.76,6.98,5.45C1951.83,2691.43,1952.49,2699.61,1953.46,2709.1z"/>
		<path class="st14" d="M1208.76,1323.72c-0.78,14.49-5.13,28.01-11.72,40.79c-2.41,4.68-5.48,9.14-8.91,13.14
			c-14.85,17.32-34.25,16.52-47.72-1.95c-11.17-15.31-14.47-33.23-16.11-51.55c-0.41-4.6,0.02-9.27,0.06-13.9
			c7.15,4.56,13.96,9.81,21.51,13.54c19.79,9.78,38.75,6.95,56.71-5.25c2.14-1.45,4.64-2.37,6.98-3.53
			c-0.06,1.22-0.11,2.45-0.17,3.67C1209.19,1320.37,1208.98,1322.04,1208.76,1323.72z"/>
		<path class="st15" d="M1209.58,1315.02c-2.34,1.16-4.84,2.08-6.98,3.53c-17.97,12.2-36.92,15.03-56.71,5.25
			c-7.56-3.73-14.36-8.98-21.51-13.54c0.04-16.08,2.47-31.68,9.36-46.38c1.42,2.05,3.64,3.92,4.13,6.17
			c1.92,8.73,7.01,14.67,14.55,19.09c14.77,8.66,32.31,5.21,40.82-5.38c3.71-4.62,7.38-9.27,11.07-13.9
			c1.31,3.21,3.52,6.35,3.76,9.64C1208.93,1291.31,1209.13,1303.17,1209.58,1315.02z"/>
		<path class="st8" d="M1455.93,1335.3c-45.83-22.76-91.8-22.76-137.96-0.49c4.58-14.84,34.64-38.51,60.08-46.81
			c18.41-6.01,37.03-9.87,55.5,0.69c-18.09,0.47-35.58,3.24-52.26,11.25c22.02,1.23,43.03,5,60.71,18.82
			c5.67,4.43,10.41,10.04,15.57,15.12C1457.02,1334.35,1456.47,1334.82,1455.93,1335.3z"/>
		<path class="st16" d="M1204.31,1269.85c-3.69,4.64-7.36,9.29-11.07,13.9c-8.51,10.59-26.05,14.04-40.82,5.38
			c-7.54-4.42-12.63-10.36-14.55-19.09c-0.5-2.25-2.71-4.13-4.13-6.17c2.74-10.64,8.8-19.3,16.78-26.5
			c12.81-11.57,27.99-10.88,39.8,1.64c6.69,7.09,11.44,15.39,13.6,25.01c0.07,0.67,0.15,1.34,0.22,2.01
			C1204.19,1267.3,1204.25,1268.58,1204.31,1269.85z M1159.94,1253.25c0.04,7.31,4.62,12.65,10.9,12.69
			c5.9,0.04,11.02-6.08,10.86-12.99c-0.12-4.99-6.76-12.67-10.94-12.65C1164.86,1240.33,1159.9,1246.26,1159.94,1253.25z"/>
		<path class="st17" d="M1236.52,1618.23c-21.84-1.24-42.65-6.5-61.97-16.8c-21.9-11.67-36.83-29.71-45.45-53.41
			c2.29,2.43,4.88,4.65,6.83,7.32c19.49,26.71,47.17,39.15,78.59,44.37c15.03,2.5,30.35,3.28,45.53,4.84
			c6.12,2.76,6.36,8.51,7.36,14.23c-1.72,0.48-3.27,0.92-4.83,1.36c-6.91-0.38-13.82-0.75-20.73-1.13
			C1240.08,1618.77,1238.3,1618.5,1236.52,1618.23z"/>
		<path class="st18" d="M1262.58,1620.16c1.55-0.44,3.11-0.87,4.83-1.36c-1-5.72-1.24-11.48-7.36-14.23
			c14.27-0.51,28.57-0.67,42.82-1.61c20.33-1.34,39.84-6.73,59.12-13.03c0.69,4.32,1.38,8.65,2.07,12.97
			c-19.41,10.03-40.34,14.98-61.85,16.92C1289.1,1621.01,1275.8,1620.12,1262.58,1620.16z"/>
		<path class="st17" d="M1364.06,1602.91c-0.69-4.32-1.38-8.65-2.07-12.97c35.65-15.68,61.17-42.29,81.04-75.02
			c3.94-6.49,8.07-12.88,13.37-19.08c-0.27,2.32-0.23,4.73-0.86,6.94c-7.68,26.96-21.6,50.5-43.07,68.28
			C1397.67,1583.31,1382.77,1596.23,1364.06,1602.91z"/>
		<path class="st18" d="M1236.52,1618.23c1.78,0.27,3.56,0.53,5.34,0.8C1240.08,1618.77,1238.3,1618.5,1236.52,1618.23z"/>
		<path class="st15" d="M1208.76,1323.72c0.21-1.68,0.43-3.36,0.64-5.03C1209.19,1320.36,1208.98,1322.04,1208.76,1323.72z"/>
		<path class="st15" d="M1204.13,1266.03c-0.07-0.67-0.15-1.34-0.22-2.01C1203.98,1264.69,1204.05,1265.36,1204.13,1266.03z"/>
		<path class="st19" d="M1605.76,725.8c1.98-1.56,3.96-3.12,5.94-4.68c0.52,0.47,1.05,0.94,1.57,1.41
			c-1.76,1.82-3.52,3.63-5.28,5.45C1607.25,727.26,1606.5,726.53,1605.76,725.8z"/>
		<path class="st1" d="M1605.76,725.8c0.74,0.73,1.49,1.46,2.23,2.19c-0.18,0.6-0.59,0.88-1.21,0.86c-0.61-0.78-1.21-1.56-1.82-2.34
			C1605.02,726.04,1605.29,725.8,1605.76,725.8z"/>
		<path class="st20" d="M2096.41,1032.78c-3.3,40.96-6.63,81.76-9.86,122.57c-1.68,21.23-3.22,42.46-4.72,63.7
			c-0.95,13.42-7.45,19.79-20.46,18.51c-20.83-2.04-41.61-4.66-62.4-7.18c-2.92-0.35-5.85-1.26-8.6-2.33
			c-5.94-2.31-8.84-6.75-8.47-13.22c0.9-15.62,1.72-31.25,2.68-46.87c1.19-19.27,2.52-38.53,3.75-57.79
			c1.82-28.56,3.56-57.13,5.46-85.69c0.52-7.86,4.82-12.23,12.67-12.68c24.93-1.41,49.86-2.69,74.8-3.83
			c10.2-0.47,14.65,3.82,15.12,13.97C2096.55,1025.6,2096.41,1029.27,2096.41,1032.78z M2070.74,1033.83
			c-18.5,1.02-35.22,1.94-52.31,2.88c-3.54,57.01-7.02,112.94-10.53,169.48c16.65,1.8,32.1,3.46,49.01,5.28
			C2061.52,1152.33,2066.07,1093.9,2070.74,1033.83z"/>
		<path class="st19" d="M1159.94,1253.25c-0.04-6.99,4.92-12.92,10.81-12.95c4.18-0.02,10.82,7.66,10.94,12.65
			c0.16,6.91-4.95,13.04-10.86,12.99C1164.57,1265.9,1159.99,1260.56,1159.94,1253.25z"/>
		<path class="st12" d="M2070.74,1033.83c-4.68,60.07-9.23,118.5-13.83,177.64c-16.91-1.82-32.36-3.49-49.01-5.28
			c3.51-56.54,6.99-112.47,10.53-169.48C2035.52,1035.77,2052.25,1034.85,2070.74,1033.83z"/>
	</g>
</g>
</svg>
